<svg width="20" height="23" viewBox="0 0 20 23" fill="none" xmlns="http://www.w3.org/2000/svg">
<path d="M1.49992 20.9167H6.73025V13.7242C6.73025 13.4003 6.84028 13.1288 7.06034 12.9097C7.27945 12.6896 7.55097 12.5796 7.87492 12.5796H12.1249C12.4489 12.5796 12.7209 12.6896 12.9409 12.9097C13.16 13.1288 13.2696 13.4003 13.2696 13.7242V20.9167H18.4999V8.60299C18.4999 8.45754 18.4683 8.32532 18.405 8.20632C18.3417 8.08732 18.2553 7.98343 18.1458 7.89465L10.5184 2.14582C10.373 2.01926 10.2001 1.95599 9.99992 1.95599C9.7997 1.95599 9.62734 2.01926 9.48284 2.14582L1.85409 7.89465C1.74547 7.98532 1.65906 8.08921 1.59484 8.20632C1.53061 8.32343 1.49897 8.45565 1.49992 8.60299V20.9167ZM0.083252 20.9167V8.60299C0.083252 8.24032 0.164474 7.89702 0.326919 7.57307C0.489363 7.24913 0.713196 6.98232 0.998418 6.77265L8.62717 0.995487C9.02667 0.690431 9.48283 0.537903 9.99567 0.537903C10.5085 0.537903 10.9675 0.690431 11.3727 0.995487L19.0014 6.77124C19.2876 6.9809 19.5114 7.24818 19.6729 7.57307C19.8354 7.89702 19.9166 8.24032 19.9166 8.60299V20.9167C19.9166 21.2963 19.7754 21.6273 19.493 21.9097C19.2106 22.1921 18.8796 22.3333 18.4999 22.3333H12.9976C12.6727 22.3333 12.4007 22.2238 12.1816 22.0047C11.9625 21.7846 11.8529 21.5126 11.8529 21.1887V13.9977H8.14692V21.1887C8.14692 21.5135 8.03736 21.7855 7.81825 22.0047C7.59914 22.2238 7.32761 22.3333 7.00367 22.3333H1.49992C1.12025 22.3333 0.789224 22.1921 0.506835 21.9097C0.224446 21.6273 0.083252 21.2963 0.083252 20.9167Z" fill="#4042E2"/>
</svg>
