<svg width="380" height="378" viewBox="0 0 380 378" fill="none" xmlns="http://www.w3.org/2000/svg">
<path d="M363.565 258.214C325.553 345.782 225.215 383.394 146.598 376.981C125.132 375.23 81.9428 371.707 48.2203 340.276C-16.5414 279.916 -6.56753 153.745 55.4282 79.4634C63.4118 69.8975 118.674 5.8062 204.79 6.66402C267.84 7.29219 312.094 42.3946 317.475 46.7677C324.272 52.2921 339.266 65.4198 352.778 86.2461C384.528 135.181 387.318 203.494 363.565 258.214Z" fill="url(#paint0_linear_50_285)"/>
<g opacity="0.68">
<path d="M126.65 241.155C126.65 241.155 120.744 94.5256 66.8333 4.65876C63.2093 -1.38221 54.3492 -1.05189 51.2244 5.26186C30.3298 47.48 -19.4426 178.189 126.65 241.155Z" fill="#91B3FA"/>
<path opacity="0.5" d="M114.447 229.398C114.724 229.799 114.168 230.24 113.84 229.88C101.734 216.595 57.079 154.208 56.9488 47.1852C56.9484 46.8414 57.46 46.8101 57.49 47.1526C59.7078 72.3867 70.64 165.97 114.447 229.398Z" fill="white"/>
</g>
<g opacity="0.78">
<path d="M99.9694 277.336C99.9694 277.336 82.1245 123.284 27.949 32.0739C24.3073 25.9425 16.7182 26.8554 14.5813 33.7041C0.292031 79.5 -31.1213 220.334 99.9694 277.336Z" fill="#BDD0FB"/>
<path opacity="0.5" d="M88.4535 265.732C88.7267 266.137 88.2869 266.636 87.9733 266.277C76.4085 253.058 32.583 190.199 23.1531 77.4923C23.1229 77.1303 23.5598 77.0647 23.6156 77.4235C27.7194 103.858 45.2666 201.723 88.4535 265.732Z" fill="white"/>
</g>
<path d="M11.9919 123.169V300.836C11.9919 315.452 23.6386 327.404 38.2494 327.781C103.142 329.454 292.556 333.512 354.329 332.601C364.947 332.444 373.548 323.948 373.854 313.334C375.045 272.059 376.98 172.808 369.82 126.729C368.313 117.025 360.122 109.769 350.307 109.455C295.935 107.716 92.8885 102.193 31.1438 103.58C20.495 103.818 11.9919 112.517 11.9919 123.169Z" fill="url(#paint1_linear_50_285)"/>
<path d="M23.14 122.775V298.171C23.14 307.038 29.99 314.263 38.5224 314.396L345.442 318.818C353.902 318.95 360.836 311.878 360.867 303.087L361.444 129.257C361.466 122.972 356.647 117.821 350.599 117.668L35.4759 110.265C28.7121 110.094 23.14 115.744 23.14 122.775Z" fill="#91B3FA"/>
<path opacity="0.31" d="M336.225 311.529L41.9754 308.146C35.6215 308.3 30.4292 301.526 30.4713 293.136L31.2202 144.056C31.8694 128.238 38.8868 121.134 45.1427 121.165L336.335 130.634C342.591 130.666 347.629 137.387 347.587 145.646L346.882 286.107C346.841 294.237 342.382 311.38 336.225 311.529Z" fill="white"/>
<path fill-rule="evenodd" clip-rule="evenodd" d="M243.516 151.978L257.784 152.05C258.266 152.053 258.657 152.397 258.665 152.826L258.772 158.749C258.781 159.232 259.272 159.595 259.806 159.514L285.898 155.545C285.949 155.537 286.001 155.534 286.052 155.534L303.98 155.624C304.024 155.624 304.068 155.621 304.112 155.616L324.384 152.99C324.631 152.958 324.882 153.02 325.075 153.162L329.533 156.431C329.902 156.702 329.963 157.185 329.67 157.521L324.165 163.842C324.007 164.024 323.946 164.257 323.997 164.482L326.39 174.9C326.429 175.067 326.405 175.24 326.324 175.394L317.819 191.445C317.538 191.976 316.726 192.056 316.321 191.592L311.348 185.901C311.188 185.718 311.127 185.483 311.18 185.256L313.331 176.093C313.516 175.308 312.416 174.808 311.81 175.401L306.493 180.608C306.393 180.707 306.266 180.781 306.124 180.824L299.969 182.685C299.757 182.749 299.58 182.882 299.474 183.058L296.445 188.083C296.154 188.565 296.492 189.158 297.101 189.235L304.023 190.112C304.444 190.165 304.763 190.477 304.783 190.854L305.657 206.967C305.67 207.219 305.548 207.461 305.327 207.619L298.79 212.281C298.488 212.496 298.378 212.862 298.52 213.183L300.014 216.572C300.232 217.067 299.849 217.607 299.254 217.645L297.475 217.757C297.177 217.776 296.887 217.659 296.706 217.446L291.648 211.492C291.209 210.974 290.295 211.124 290.093 211.746L289.554 213.401C289.491 213.594 289.514 213.801 289.617 213.98L294.549 222.534C294.722 222.835 294.66 223.201 294.395 223.444L285.631 231.427C285.208 231.812 284.582 231.959 284 231.811L282.457 231.415C281.601 231.196 280.705 231.623 280.436 232.378C280.277 232.823 280.367 233.31 280.677 233.687L285.148 239.114C285.638 239.708 285.555 240.534 284.955 241.041L282.475 243.136C281.83 243.68 280.816 243.67 280.184 243.112L266.412 230.965C265.769 230.398 264.732 230.399 264.092 230.968L256.67 237.562C256.45 237.756 256.298 238.002 256.229 238.271L255.611 240.678C255.301 241.888 253.544 242.225 252.699 241.237L241.137 227.727C240.825 227.362 240.365 227.12 239.856 227.052L231.86 225.983C231.63 225.952 231.408 225.885 231.203 225.786L227.906 224.179C226.988 223.732 225.958 224.579 226.386 225.429L227.134 226.911C227.407 227.454 227.971 227.837 228.631 227.93L234.2 228.713C234.906 228.813 235.497 229.243 235.746 229.839L236.019 230.49C236.345 231.269 236.014 232.144 235.226 232.589L222.881 239.556C222.326 239.869 221.589 239.678 221.308 239.15L213.929 225.27C213.688 224.818 213.1 224.601 212.571 224.771C211.964 224.965 211.679 225.583 211.956 226.102L218.23 237.851C219.291 239.837 221.776 240.886 224.173 240.359L225.216 240.129C226.727 239.797 228.058 241.077 227.569 242.392L225.984 246.652C225.864 246.976 225.64 247.262 225.34 247.474L219.668 251.495C218.355 252.425 217.629 253.864 217.72 255.356L218.006 260.065C218.091 261.466 217.457 262.825 216.281 263.759L213.999 265.572C213.012 266.356 212.512 267.516 212.655 268.686L212.771 269.64C212.912 270.798 212.424 271.946 211.456 272.73L202.794 279.75C201.811 280.547 200.455 280.869 199.156 280.616L197.476 280.288C196.06 280.012 194.913 279.091 194.456 277.867L189.682 265.045C189.166 263.659 189.626 262.135 190.852 261.167C192.062 260.212 192.527 258.712 192.039 257.338L189.398 249.902C188.476 247.307 185.477 245.769 182.494 246.363L175.665 247.722C175.103 247.834 174.514 247.697 174.084 247.354L164.464 239.684C164.084 239.38 163.867 238.946 163.87 238.492L163.915 229.566C163.927 227.163 164.896 224.843 166.651 223.019L167.834 221.788C170.03 219.505 173.123 218.054 176.482 217.731L183.402 217.066L188.071 216.552C188.993 216.451 189.848 216.996 190.039 217.805L190.359 219.164C190.473 219.647 190.832 220.056 191.332 220.271L198.019 223.144L198.852 220.413L211.077 221.69L211.274 218.545C211.304 218.064 210.934 217.635 210.404 217.537L205.18 216.575L202.984 212.327L199.019 211.47L200.775 216.662L197.654 213.259L193.31 209.264C192.687 208.691 191.685 208.617 190.966 209.089C190.104 209.656 189.995 210.768 190.734 211.46L194.769 215.243L192.385 215.238C191.949 215.237 191.528 215.094 191.202 214.836L186.479 211.098C185.749 210.52 184.632 210.572 183.974 211.215L180.074 215.027C179.808 215.287 179.453 215.461 179.063 215.522L175.944 216.008C174.98 216.158 174.059 215.589 173.88 214.732L173.226 211.603C173.011 210.574 173.952 209.646 175.124 209.731L177.382 209.896C178.666 209.989 179.634 208.878 179.212 207.794L178.179 205.139C177.914 204.458 178.196 203.705 178.867 203.303L186.688 198.616L198.493 197.822L200.784 191.035L197.767 190.055L198.865 184.03L196.596 184.241L193.799 189.288L193.986 194.877L190.503 196.034L188.663 191.765L185.746 193.424L184.214 187.869C184.2 187.818 184.212 187.765 184.246 187.722L195.936 173.345L211.393 177.499L211.555 179.954L207.546 181.552L207.303 185.337L213.853 180.681L223.176 176.143L223.384 173.154L227.586 173.151C227.756 173.151 227.923 173.195 228.066 173.277L229.631 174.172C230.336 174.575 231.217 173.962 230.946 173.256L229.202 168.712C229.111 168.473 229.153 168.21 229.317 168.004L230.836 166.09C231.021 165.857 231.334 165.731 231.653 165.763L235.482 166.134C235.645 166.15 235.8 166.206 235.929 166.295L236.41 166.627C237.138 167.131 238.137 166.431 237.758 165.683C237.525 165.222 237.833 164.688 238.39 164.588L240.178 164.268C240.937 164.133 241.147 163.256 240.516 162.855L239.586 162.265C239.123 161.971 239.087 161.37 239.513 161.035L244.035 157.469C244.115 157.406 244.208 157.356 244.308 157.322L248.092 156.047C248.585 155.881 248.806 155.37 248.566 154.953L248.211 154.336C248.022 154.007 247.601 153.839 247.199 153.932L243.658 154.756C243.077 154.892 242.516 154.483 242.55 153.949L242.628 152.72C242.655 152.302 243.045 151.976 243.516 151.978Z" fill="white"/>
<path fill-rule="evenodd" clip-rule="evenodd" d="M306.491 259.358L298.277 262.017C297.911 262.136 297.604 262.366 297.411 262.668L294.994 266.449C294.777 266.788 294.417 267.036 293.993 267.138L286.625 268.903C285.833 269.093 285.319 269.773 285.422 270.498L286.768 280.002C286.806 280.273 286.759 280.547 286.632 280.794L285.535 282.929C285.097 283.78 285.658 284.774 286.687 284.971L288.034 285.228C288.368 285.292 288.717 285.261 289.032 285.14L300.923 280.566C301.66 280.283 302.519 280.514 302.957 281.113L305.704 284.873C305.784 284.981 305.879 285.08 305.987 285.166L310.27 288.574C310.624 288.855 311.097 288.987 311.568 288.936L318.495 288.182C319.299 288.094 319.91 287.499 319.938 286.779L320.051 283.802C320.062 283.516 320.167 283.239 320.353 283.005L324.625 277.645C324.821 277.4 324.927 277.106 324.928 276.805L324.949 272.664C324.951 272.268 324.774 271.889 324.457 271.612L318.74 266.608C318.541 266.434 318.394 266.217 318.315 265.978L317.267 262.814C316.806 261.423 314.599 261.408 314.117 262.792L313.737 263.884C313.399 264.856 312.075 265.231 311.166 264.611L309.867 263.726C309.242 263.3 309.043 262.54 309.392 261.913L309.408 261.883C309.781 261.213 309.526 260.399 308.816 259.997L307.937 259.499C307.505 259.255 306.971 259.203 306.491 259.358Z" fill="white"/>
<path fill-rule="evenodd" clip-rule="evenodd" d="M304.447 250.09L304.266 250.62C304.07 251.193 304.288 251.816 304.814 252.19L309.528 255.542C309.732 255.687 309.972 255.787 310.229 255.834L319.16 257.445C319.251 257.462 319.339 257.485 319.425 257.514L320.589 257.913C322.047 258.413 323.391 256.996 322.594 255.801L322.127 255.1C321.944 254.825 321.664 254.611 321.332 254.491L306.641 249.161C305.744 248.835 304.728 249.266 304.447 250.09Z" fill="white"/>
<path fill-rule="evenodd" clip-rule="evenodd" d="M289.976 244.218C288.806 245.376 287.228 246.927 286.338 247.802C285.918 248.215 285.798 248.805 286.029 249.323L287.98 253.71C288.284 254.392 289.107 254.769 289.907 254.593L292.915 253.931C293.477 253.807 293.925 253.43 294.093 252.936L295.291 249.423C295.425 249.03 295.37 248.608 295.135 248.254C294.57 247.404 293.464 245.738 292.613 244.456C292.047 243.604 290.719 243.482 289.976 244.218Z" fill="white"/>
<path fill-rule="evenodd" clip-rule="evenodd" d="M274.757 244.795L281.564 252.487C281.585 252.51 281.607 252.534 281.63 252.556L285.823 256.732C286.106 257.014 286.501 257.188 286.925 257.217L294.99 257.769L294.941 257.904C294.731 258.487 294.136 258.892 293.449 258.919L282.178 259.364C281.598 259.387 281.046 259.135 280.727 258.702L271.876 246.676C271.436 246.078 271.545 245.284 272.136 244.798L272.348 244.624C273.053 244.045 274.163 244.124 274.757 244.795Z" fill="white"/>
<path fill-rule="evenodd" clip-rule="evenodd" d="M111.108 237.411L109.061 240.054C108.778 240.42 108.272 240.596 107.785 240.496L103.959 239.719C103.4 239.605 103.005 239.162 103.008 238.653L103.02 236.22C103.023 235.637 102.509 235.155 101.854 235.128L99.643 235.035C98.7437 234.998 98.1962 234.137 98.6236 233.432L101.014 229.489L97.2977 228.382C97.2977 228.382 94.48 232.419 93.9195 232.436C93.3589 232.452 89.6899 227.316 89.6899 227.316L94.3306 222.1L101.457 221.946L104.85 226.344L107.009 219.263L114.967 213.935L130.685 204.111C130.799 204.04 130.889 203.943 130.948 203.831L133.89 198.205C134.021 197.956 133.976 197.662 133.777 197.452L129.14 192.564C129.035 192.453 128.971 192.316 128.956 192.172L128.688 189.52C128.618 188.827 127.582 188.632 127.203 189.24C126.929 189.682 126.236 189.731 125.885 189.334L122.758 185.789C122.079 185.02 120.778 185.001 120.074 185.75L116.076 190.001C115.963 190.121 115.872 190.256 115.805 190.4L114.053 194.167C113.478 195.402 111.528 195.44 110.891 194.228L110.799 194.052C110.63 193.73 110.345 193.472 109.986 193.318C108.271 192.583 103.136 190.303 103.109 189.374C103.08 188.411 106.564 183.104 107.515 181.674C107.67 181.44 107.891 181.25 108.158 181.118L114.843 177.81C114.871 177.796 114.899 177.783 114.928 177.771L121.248 175.038C121.872 174.768 122.253 174.193 122.217 173.577L122.129 172.074C122.073 171.123 121.07 170.444 120.026 170.651L116.991 171.253C116.695 171.312 116.422 171.439 116.199 171.621L114.843 172.73C114.01 173.411 112.679 173.208 112.148 172.318L110.26 169.16C109.774 168.346 108.599 168.092 107.749 168.617L105.17 170.209C104.737 170.476 104.191 170.553 103.686 170.417L94.9667 168.068C94.7911 168.021 94.6249 167.949 94.4747 167.855L87.0104 163.197C86.5961 162.938 86.0753 162.854 85.5857 162.967L79.707 164.318C79.1498 164.446 78.5574 164.319 78.1268 163.979L68.0163 155.989C67.5826 155.646 66.99 155.518 66.4299 155.651C64.5295 156.1 60.0973 157.124 58.2582 157.337C56.4016 157.552 54.3827 159.75 53.5924 160.697C53.3769 160.954 53.3499 161.296 53.5194 161.58L54.3733 163.012C54.674 163.516 54.3284 164.133 53.6955 164.223L50.5393 164.668C49.886 164.76 49.5451 165.411 49.8856 165.916L50.6253 167.013C50.7433 167.189 50.7849 167.396 50.7422 167.597L50.1578 170.336C50.0583 170.803 49.5407 171.1 49.0218 170.988L46.0012 170.34C45.3928 170.209 44.8155 170.637 44.8501 171.193L45.1144 175.429C45.1249 175.598 45.1927 175.76 45.3089 175.893L47.8205 178.778C48.1627 179.171 48.0465 179.74 47.5689 179.997C45.0942 181.329 38.3763 184.939 39.0384 184.522C39.8484 184.011 47.2154 184.659 47.2813 183.528C47.3472 182.397 52.242 181.332 52.5827 180.941C52.8387 180.647 54.6924 178.262 55.5988 177.093C55.8784 176.733 56.4241 176.628 56.8468 176.853L64.2852 180.816C64.7608 181.069 65.0711 181.51 65.1201 182.001L65.9265 190.111C65.9492 190.338 66.0283 190.558 66.1585 190.755L69.3331 195.56L72.9857 201.648C73.2139 202.028 73.2523 202.476 73.0919 202.882L71.0779 207.982C69.5608 211.823 69.8961 216.053 72.0024 219.671C73.717 222.616 75.4767 225.665 75.5769 225.94C75.6101 226.031 75.7163 226.197 75.8705 226.411C77.3694 228.49 79.5114 230.14 81.9976 231.237L93.5454 236.335C93.5959 236.357 93.6447 236.382 93.6914 236.411L102.189 241.572C102.271 241.621 102.346 241.679 102.411 241.745L103.834 243.158C104.113 243.436 104.532 243.567 104.944 243.506C105.903 243.365 106.655 244.228 106.262 245.019L104.004 249.568C103.912 249.754 103.88 249.959 103.913 250.16L105.33 259.053C105.368 259.296 105.498 259.519 105.697 259.688L111.75 264.824C111.929 264.976 112.053 265.173 112.104 265.389L114.203 274.32C114.215 274.372 114.223 274.425 114.226 274.478L115.86 299.093C115.881 299.416 116.063 299.715 116.357 299.906L121.982 303.586C122.215 303.738 122.5 303.812 122.788 303.795L124.739 303.679C125.789 303.616 126.263 302.481 125.515 301.822L123.631 300.162C123.416 299.973 123.287 299.719 123.27 299.45L123.123 297.118C123.121 297.096 123.121 297.074 123.121 297.052L123.142 292.769C123.143 292.702 123.15 292.635 123.164 292.57L123.869 289.289C123.873 289.269 123.877 289.248 123.88 289.228L124.222 286.932C124.279 286.552 124.556 286.227 124.952 286.076L129.771 284.245C130.395 284.008 130.682 283.363 130.409 282.809L129.786 281.547C129.482 280.93 129.874 280.219 130.607 280.056L132.496 279.636C132.801 279.568 133.064 279.398 133.232 279.162L137.151 273.632C137.414 273.261 137.401 272.786 137.117 272.427L137.036 272.325C136.529 271.682 136.93 270.788 137.795 270.634L139.979 270.246C140.417 270.168 140.771 269.884 140.904 269.505L144.106 260.386C144.156 260.243 144.239 260.111 144.349 259.999L148.891 255.333C149.364 254.847 149.262 254.104 148.672 253.732L142.446 249.818C142.225 249.679 141.958 249.609 141.688 249.62L137.213 249.79C136.92 249.801 136.632 249.718 136.402 249.556L133.717 247.666C133.432 247.465 133.262 247.162 133.253 246.838L133.175 243.901C133.163 243.432 132.813 243.023 132.309 242.886L126.843 241.401C126.694 241.361 126.556 241.296 126.435 241.21L123.035 238.786C122.69 238.54 122.222 238.479 121.813 238.626L119.052 239.62C118.719 239.74 118.343 239.723 118.024 239.574L112.684 237.068C112.136 236.811 111.459 236.958 111.108 237.411Z" fill="white"/>
<path fill-rule="evenodd" clip-rule="evenodd" d="M116.245 166.5L116.958 163.432C117.102 162.811 117.66 162.333 118.363 162.229L123.385 161.483C123.777 161.425 124.181 161.489 124.527 161.665L130.714 164.812C131.131 165.024 131.243 165.513 130.953 165.852L128.477 168.755C128.271 168.997 128.261 169.329 128.454 169.58L131.979 174.177C132.086 174.316 132.134 174.486 132.112 174.654L131.443 179.948C131.43 180.051 131.391 180.151 131.329 180.24L129.368 183.059C129.187 183.318 128.841 183.444 128.508 183.373L123.155 182.223C123.069 182.204 122.984 182.18 122.902 182.15L122.42 181.973C121.04 181.468 120.979 179.748 122.32 179.168L123.322 178.735C123.991 178.447 124.377 177.813 124.28 177.157C124.082 175.815 123.72 173.65 123.373 173.046C123.069 172.515 122.876 171.251 122.77 170.311C122.694 169.632 122.124 169.081 121.37 168.955L117.618 168.324C116.668 168.165 116.049 167.343 116.245 166.5Z" fill="white"/>
<path fill-rule="evenodd" clip-rule="evenodd" d="M94.6948 156.683L92.3903 158.37C91.6724 158.895 91.5512 159.832 92.1159 160.49L94.3169 163.054C94.356 163.1 94.3922 163.148 94.4254 163.197L97.2968 167.455C97.4942 167.747 97.7953 167.973 98.1526 168.097L100.858 169.035C101.449 169.24 102.119 169.14 102.602 168.775L104.489 167.349C104.66 167.22 104.802 167.063 104.905 166.885L107.102 163.111C107.229 162.893 107.296 162.651 107.296 162.406C107.298 161.037 105.439 160.347 104.349 161.312L104.232 161.416C103.536 162.031 102.405 162.008 101.741 161.364L97.0649 156.832C96.444 156.23 95.4033 156.165 94.6948 156.683Z" fill="white"/>
<path fill-rule="evenodd" clip-rule="evenodd" d="M141.93 149.655L133.581 155.639C133.323 155.824 133.221 156.132 133.326 156.411L134.892 160.601C134.974 160.819 135.17 160.989 135.418 161.055L140.09 162.301C140.472 162.402 140.748 162.696 140.793 163.049L141.991 172.396C142.009 172.539 141.988 172.684 141.93 172.818L139.093 179.284C139.016 179.459 139.004 179.65 139.058 179.831L141.381 187.683C141.457 187.938 141.656 188.15 141.925 188.261L143.845 189.053C144.318 189.249 144.879 189.086 145.132 188.68L148.987 182.488C149.083 182.334 149.228 182.21 149.403 182.13L155.753 179.238C155.833 179.201 155.906 179.156 155.972 179.102L165.293 171.479C165.441 171.358 165.544 171.199 165.589 171.025L168.911 158.064C168.945 157.93 169.014 157.806 169.111 157.7L174.253 152.121C174.475 151.88 174.538 151.552 174.418 151.258L173.831 149.821C173.638 149.347 173.038 149.112 172.515 149.306L169.646 150.369C169.47 150.434 169.276 150.453 169.088 150.422L167.322 150.139C166.267 149.97 166.217 148.64 167.257 148.411C168.029 148.241 168.274 147.372 167.684 146.897L167.052 146.388C166.995 146.342 166.945 146.291 166.901 146.235L164.645 143.333C164.46 143.095 164.157 142.953 163.832 142.951L157.439 142.919C157.174 142.918 156.92 143.011 156.733 143.177L153.122 146.379C152.89 146.584 152.787 146.879 152.847 147.166L153.204 148.878C153.347 149.564 152.583 150.12 151.856 149.858L149.829 149.131C149.601 149.049 149.415 148.894 149.307 148.698L148.719 147.625C148.477 147.183 147.877 147.001 147.383 147.22L142.111 149.551C142.047 149.58 141.986 149.615 141.93 149.655Z" fill="white"/>
<path fill-rule="evenodd" clip-rule="evenodd" d="M126.749 143.838L136.823 141.489C136.95 141.46 137.084 141.459 137.212 141.486L146.184 143.437C147.012 143.617 147.219 144.581 146.523 145.019L145.197 145.853C145.18 145.863 145.165 145.874 145.149 145.885L132.89 154.613L127.408 158.58C127.015 158.864 126.503 158.98 126.005 158.899L120.592 158.008C120.043 157.918 119.479 158.069 119.078 158.414L117.395 159.864C116.557 160.585 115.173 160.375 114.649 159.447L113.912 158.142C113.882 158.088 113.855 158.033 113.832 157.976L113.265 156.587C112.938 155.786 113.405 154.902 114.306 154.615L117.61 153.566C118.026 153.434 118.485 153.449 118.889 153.608L121.385 154.591C121.821 154.762 122.316 154.767 122.754 154.603L122.811 154.581C123.881 154.181 124.21 152.972 123.464 152.178L122.823 151.496C122.375 151.018 122.293 150.348 122.616 149.798L125.656 144.613C125.881 144.229 126.278 143.948 126.749 143.838Z" fill="white"/>
<path fill-rule="evenodd" clip-rule="evenodd" d="M102.231 150.184L105.899 149.326C106.901 149.092 107.91 149.691 108.051 150.605L108.576 153.994C108.683 154.684 108.256 155.351 107.534 155.62L104.425 156.78C103.456 157.141 102.351 156.654 102.084 155.749L101.001 152.059C100.76 151.238 101.31 150.4 102.231 150.184Z" fill="white"/>
<path d="M92.1961 200.517C91.4489 200.517 90.8423 199.913 90.8396 199.165L90.8264 195.096C90.8237 194.347 91.4291 193.738 92.1784 193.735C92.1798 193.735 92.1815 193.735 92.1815 193.735C92.93 193.735 93.5366 194.339 93.5393 195.087L93.5525 199.156C93.5547 199.906 92.9499 200.515 92.2005 200.517C92.2005 200.517 92.1974 200.517 92.1961 200.517ZM92.1701 192.378C91.4229 192.378 90.8163 191.774 90.8136 191.026L90.8004 186.957C90.7982 186.208 91.4031 185.599 92.1524 185.596C92.1524 185.596 92.1555 185.596 92.1569 185.596C92.904 185.596 93.5106 186.201 93.5133 186.948L93.5265 191.018C93.5292 191.767 92.9238 192.376 92.1745 192.378C92.1732 192.378 92.1714 192.378 92.1701 192.378ZM92.1441 184.24C91.3969 184.24 90.7903 183.635 90.7876 182.887L90.7744 178.818C90.7717 178.069 91.3771 177.46 92.1264 177.457H92.1309C92.878 177.457 93.4846 178.062 93.4873 178.809L93.5005 182.879C93.5027 183.628 92.8978 184.237 92.1485 184.24C92.1472 184.24 92.1454 184.24 92.1441 184.24ZM92.1179 176.101C91.3707 176.101 90.7641 175.496 90.7614 174.749L90.7482 170.679C90.7455 169.93 91.3509 169.321 92.1003 169.318H92.1047C92.8519 169.318 93.4585 169.923 93.4612 170.67L93.4744 174.74C93.4771 175.489 92.8717 176.098 92.1224 176.101H92.1179ZM92.0919 167.962C91.3447 167.962 90.7381 167.357 90.7354 166.61L90.7222 162.54C90.7201 161.791 91.3249 161.182 92.0742 161.18C92.0756 161.18 92.0773 161.18 92.0773 161.18C92.8257 161.18 93.4325 161.784 93.4352 162.532L93.4484 166.601C93.4511 167.35 92.8457 167.959 92.0964 167.962C92.0964 167.962 92.0932 167.962 92.0919 167.962ZM92.0659 159.823C91.3187 159.823 90.7121 159.219 90.7094 158.471L90.6962 154.402C90.6935 153.653 91.2989 153.044 92.0482 153.041C92.0482 153.041 92.0513 153.041 92.0527 153.041C92.7998 153.041 93.4065 153.646 93.4092 154.393L93.4224 158.462C93.4245 159.211 92.8197 159.82 92.0703 159.823H92.0659ZM92.0399 151.685C91.2927 151.685 90.6861 151.08 90.6834 150.333L90.6702 146.263C90.6681 145.514 91.2729 144.905 92.0222 144.902H92.0267C92.7738 144.902 93.3805 145.507 93.3831 146.254L93.3964 150.324C93.3991 151.073 92.7936 151.682 92.0443 151.685C92.0428 151.685 92.0411 151.685 92.0399 151.685ZM92.0133 143.546C91.2662 143.546 90.659 142.941 90.6569 142.194L90.6441 138.124C90.6419 137.375 91.2472 136.766 91.9961 136.763H92.0005C92.7477 136.763 93.3549 137.368 93.357 138.116L93.3698 142.185C93.372 142.934 92.7666 143.544 92.0178 143.546C92.016 143.546 92.0147 143.546 92.0133 143.546ZM91.9873 135.407C91.2401 135.407 90.633 134.803 90.6309 134.055L90.6181 129.986C90.6159 129.236 91.2212 128.627 91.9701 128.625C91.9718 128.625 91.9732 128.625 91.9732 128.625C92.7216 128.625 93.3287 129.229 93.331 129.977L93.3438 134.046C93.346 134.795 92.7407 135.405 91.9918 135.407H91.9873ZM91.9612 127.268C91.214 127.268 90.6069 126.664 90.6047 125.916L90.5919 121.847C90.5897 121.097 91.195 120.488 91.9439 120.486C91.9439 120.486 91.947 120.486 91.9484 120.486C92.6955 120.486 93.3027 121.09 93.3048 121.838L93.3176 125.907C93.3198 126.657 92.7144 127.266 91.9656 127.268C91.9656 127.268 91.9625 127.268 91.9612 127.268ZM91.9352 119.129C91.188 119.129 90.5808 118.525 90.5787 117.777L90.5659 113.708C90.5637 112.959 91.169 112.349 91.9179 112.347C91.9179 112.347 91.921 112.347 91.9224 112.347C92.6695 112.347 93.2767 112.951 93.2788 113.699L93.2916 117.768C93.2938 118.518 92.6885 119.127 91.9396 119.129C91.9379 119.129 91.9365 119.129 91.9352 119.129ZM91.9092 110.991C91.162 110.991 90.5548 110.386 90.5527 109.639L90.5399 105.569C90.5377 104.82 91.143 104.211 91.8919 104.208H91.8964C92.6435 104.208 93.2507 104.813 93.2528 105.56L93.2656 109.63C93.2678 110.379 92.6624 110.988 91.9136 110.991C91.9117 110.991 91.9105 110.991 91.9092 110.991ZM91.8831 102.852C91.136 102.852 90.5288 102.247 90.5267 101.5L90.5139 97.4303C90.5117 96.681 91.1171 96.0717 91.8659 96.0694C91.8676 96.0694 91.869 96.0694 91.869 96.0694C92.6175 96.0694 93.2247 96.6739 93.2268 97.4214L93.2396 101.491C93.2418 102.24 92.6365 102.849 91.8876 102.852H91.8831ZM91.857 94.713C91.1098 94.713 90.5032 94.1085 90.5005 93.3609L90.4873 89.2915C90.4846 88.5422 91.09 87.9333 91.8393 87.9306C91.8407 87.9306 91.8424 87.9306 91.8424 87.9306C92.5908 87.9306 93.1976 88.5351 93.2003 89.2826L93.2135 93.352C93.2156 94.1014 92.6108 94.7103 91.8614 94.713C91.8614 94.713 91.8584 94.713 91.857 94.713ZM91.831 86.5741C91.0838 86.5741 90.4772 85.9697 90.4745 85.2221L90.4613 81.1527C90.4592 80.4034 91.064 79.7945 91.8133 79.7918C91.8133 79.7918 91.8164 79.7918 91.8178 79.7918C92.565 79.7918 93.1716 80.3962 93.1742 81.1438L93.1875 85.2132C93.1902 85.9625 92.5848 86.5714 91.8354 86.5741C91.8341 86.5741 91.8323 86.5741 91.831 86.5741ZM91.805 78.4352C91.0578 78.4352 90.4512 77.8307 90.4485 77.0832L90.4353 73.0138C90.4326 72.2644 91.038 71.6555 91.7873 71.6528H91.7918C92.5389 71.6528 93.1455 72.2573 93.1482 73.0049L93.1614 77.0743C93.1636 77.8236 92.5588 78.4325 91.8094 78.4352C91.8081 78.4352 91.8062 78.4352 91.805 78.4352ZM91.7788 70.2964C91.0317 70.2964 90.4251 69.6919 90.4224 68.9444L90.4092 64.8749C90.4065 64.1256 91.0118 63.5167 91.7612 63.514H91.7656C92.5128 63.514 93.1194 64.1185 93.1221 64.866L93.1353 68.9354C93.138 69.6848 92.5326 70.2937 91.7833 70.2964H91.7788ZM91.7528 62.158C91.0056 62.158 90.3991 61.5535 90.3964 60.8059L90.3875 58.0921C90.3853 57.3427 90.9901 56.7338 91.7395 56.7311C91.7408 56.7311 91.7426 56.7311 91.7426 56.7311C92.491 56.7311 93.0977 57.3356 93.1004 58.0832L93.1093 60.797C93.112 61.5464 92.5066 62.1553 91.7573 62.158C91.7573 62.158 91.7542 62.158 91.7528 62.158Z" fill="url(#paint2_linear_50_285)"/>
<path d="M191.218 240.759C190.477 240.759 189.873 240.164 189.862 239.422L189.805 235.353C189.795 234.604 190.394 233.988 191.142 233.977C191.149 233.977 191.155 233.977 191.162 233.977C191.902 233.977 192.507 234.572 192.518 235.315L192.575 239.384C192.585 240.133 191.986 240.749 191.237 240.759C191.231 240.759 191.225 240.759 191.218 240.759ZM191.105 232.621C190.364 232.621 189.759 232.027 189.749 231.284L189.692 227.215C189.682 226.466 190.28 225.85 191.029 225.839C191.783 225.827 192.394 226.428 192.405 227.177L192.462 231.246C192.472 231.995 191.873 232.611 191.124 232.621C191.118 232.621 191.111 232.621 191.105 232.621ZM190.991 224.483C190.25 224.483 189.645 223.889 189.635 223.146L189.578 219.076C189.568 218.327 190.166 217.712 190.915 217.701C190.922 217.701 190.928 217.701 190.934 217.701C191.675 217.701 192.28 218.296 192.291 219.038L192.348 223.108C192.358 223.857 191.759 224.473 191.01 224.483C191.003 224.483 190.997 224.483 190.991 224.483ZM190.877 216.345C190.137 216.345 189.532 215.75 189.521 215.007L189.464 210.938C189.454 210.189 190.053 209.574 190.802 209.563C190.808 209.563 190.814 209.563 190.821 209.563C191.561 209.563 192.166 210.158 192.177 210.9L192.234 214.969C192.244 215.718 191.646 216.334 190.897 216.345C190.89 216.345 190.884 216.345 190.877 216.345ZM190.763 208.207C190.023 208.207 189.418 207.612 189.407 206.87L189.351 202.801C189.341 202.051 189.939 201.436 190.688 201.425C190.695 201.425 190.701 201.425 190.708 201.425C191.448 201.425 192.053 202.02 192.064 202.763L192.12 206.832C192.13 207.581 191.532 208.196 190.783 208.207C190.776 208.207 190.77 208.207 190.763 208.207ZM190.65 200.069C189.91 200.069 189.304 199.474 189.294 198.732L189.237 194.663C189.227 193.914 189.825 193.298 190.574 193.287C191.31 193.292 191.939 193.875 191.95 194.625L192.007 198.694C192.017 199.442 191.418 200.058 190.669 200.069C190.663 200.069 190.656 200.069 190.65 200.069ZM190.536 191.931C189.796 191.931 189.191 191.336 189.18 190.594L189.123 186.525C189.113 185.776 189.712 185.16 190.461 185.149C191.21 185.124 191.825 185.737 191.836 186.487L191.893 190.556C191.903 191.305 191.305 191.92 190.556 191.931C190.549 191.931 190.543 191.931 190.536 191.931ZM190.422 183.793C189.682 183.793 189.077 183.198 189.066 182.456L189.009 178.386C188.999 177.637 189.598 177.021 190.347 177.011C191.111 177.005 191.712 177.599 191.722 178.348L191.779 182.418C191.789 183.167 191.191 183.782 190.442 183.793C190.435 183.793 190.429 183.793 190.422 183.793ZM190.309 175.655C189.569 175.655 188.963 175.06 188.953 174.317L188.896 170.248C188.886 169.499 189.484 168.883 190.233 168.873C190.24 168.873 190.246 168.873 190.253 168.873C190.993 168.873 191.598 169.468 191.609 170.21L191.666 174.279C191.676 175.028 191.077 175.644 190.328 175.655C190.322 175.655 190.316 175.655 190.309 175.655ZM190.195 167.517C189.455 167.517 188.85 166.922 188.839 166.179L188.782 162.11C188.772 161.361 189.371 160.746 190.12 160.735C190.862 160.718 191.484 161.323 191.495 162.072L191.552 166.141C191.562 166.891 190.963 167.506 190.214 167.517C190.208 167.517 190.202 167.517 190.195 167.517ZM190.082 159.379C189.341 159.379 188.736 158.784 188.725 158.041L188.668 153.972C188.658 153.223 189.257 152.608 190.006 152.597C190.013 152.597 190.019 152.597 190.025 152.597C190.765 152.597 191.371 153.192 191.381 153.934L191.438 158.003C191.448 158.752 190.85 159.368 190.101 159.379C190.094 159.379 190.088 159.379 190.082 159.379ZM189.968 151.241C189.227 151.241 188.623 150.646 188.612 149.904L188.555 145.835C188.545 145.086 189.144 144.47 189.892 144.459C189.899 144.459 189.905 144.459 189.912 144.459C190.652 144.459 191.257 145.054 191.268 145.797L191.325 149.865C191.335 150.614 190.736 151.23 189.987 151.241C189.981 151.241 189.975 151.241 189.968 151.241ZM189.854 143.103C189.114 143.103 188.509 142.508 188.498 141.766L188.441 137.697C188.431 136.948 189.03 136.332 189.779 136.321C190.513 136.312 191.143 136.909 191.154 137.659L191.211 141.728C191.221 142.476 190.622 143.092 189.874 143.103C189.867 143.103 189.861 143.103 189.854 143.103ZM189.741 134.965C189 134.965 188.395 134.37 188.385 133.627L188.328 129.558C188.318 128.809 188.916 128.193 189.665 128.183C189.672 128.183 189.678 128.183 189.684 128.183C190.425 128.183 191.03 128.777 191.041 129.52L191.098 133.589C191.108 134.338 190.509 134.954 189.76 134.965C189.753 134.965 189.747 134.965 189.741 134.965ZM189.627 126.827C188.886 126.827 188.281 126.232 188.271 125.489L188.214 121.42C188.204 120.671 188.803 120.055 189.552 120.045C190.314 120.024 190.916 120.633 190.927 121.382L190.984 125.451C190.994 126.201 190.395 126.816 189.646 126.827C189.639 126.827 189.633 126.827 189.627 126.827ZM189.513 118.689C188.773 118.689 188.168 118.094 188.157 117.351L188.1 113.282C188.09 112.533 188.689 111.917 189.438 111.907C189.444 111.907 189.451 111.907 189.457 111.907C190.198 111.907 190.803 112.501 190.813 113.244L190.87 117.313C190.88 118.062 190.282 118.678 189.533 118.689C189.526 118.689 189.52 118.689 189.513 118.689ZM189.4 110.551C188.66 110.551 188.054 109.956 188.044 109.213L187.987 105.144C187.977 104.395 188.575 103.779 189.324 103.769C189.331 103.769 189.337 103.769 189.344 103.769C190.084 103.769 190.689 104.363 190.7 105.106L190.757 109.175C190.767 109.924 190.168 110.54 189.419 110.551C189.413 110.551 189.406 110.551 189.4 110.551ZM189.286 102.413C188.546 102.413 187.94 101.818 187.93 101.075L187.873 97.0063C187.863 96.2574 188.461 95.6415 189.21 95.6309C189.965 95.6185 190.575 96.219 190.586 96.9683L190.643 101.037C190.653 101.786 190.054 102.402 189.305 102.413C189.299 102.413 189.292 102.413 189.286 102.413ZM189.172 94.2748C188.432 94.2748 187.827 93.6801 187.816 92.9373L187.759 88.8679C187.749 88.119 188.348 87.5031 189.097 87.4925C189.841 87.4929 190.461 88.0806 190.472 88.8299L190.529 92.8993C190.539 93.6483 189.941 94.2642 189.192 94.2748C189.185 94.2748 189.179 94.2748 189.172 94.2748ZM189.058 86.1365C188.318 86.1365 187.713 85.5418 187.702 84.7991L187.646 80.7301C187.636 79.9807 188.234 79.3652 188.983 79.3546C189.716 79.3311 190.348 79.9427 190.359 80.6921L190.415 84.7611C190.425 85.5104 189.827 86.1259 189.078 86.1365C189.071 86.1365 189.065 86.1365 189.058 86.1365Z" fill="url(#paint3_linear_50_285)"/>
<path d="M296.119 233.073C296.119 233.073 296.116 233.073 296.115 233.073C295.365 233.07 294.76 232.461 294.762 231.712L294.776 227.642C294.779 226.895 295.386 226.29 296.133 226.29C296.134 226.29 296.136 226.29 296.136 226.29C296.886 226.293 297.492 226.902 297.489 227.651L297.475 231.721C297.473 232.468 296.866 233.073 296.119 233.073ZM296.146 224.934C296.146 224.934 296.143 224.934 296.141 224.934C295.392 224.931 294.787 224.322 294.789 223.573L294.803 219.503C294.806 218.756 295.412 218.151 296.16 218.151C296.161 218.151 296.163 218.151 296.163 218.151C296.913 218.154 297.519 218.763 297.516 219.512L297.502 223.582C297.5 224.329 296.893 224.934 296.146 224.934ZM296.173 216.795C296.173 216.795 296.17 216.795 296.168 216.795C295.419 216.792 294.814 216.183 294.816 215.434L294.83 211.365C294.833 210.617 295.439 210.013 296.187 210.013C296.188 210.013 296.19 210.013 296.19 210.013C296.94 210.015 297.546 210.625 297.543 211.373L297.529 215.443C297.527 216.19 296.92 216.795 296.173 216.795ZM296.2 208.656C296.2 208.656 296.197 208.656 296.196 208.656C295.446 208.653 294.841 208.044 294.844 207.295L294.857 203.226C294.86 202.478 295.466 201.874 296.213 201.874C296.215 201.874 296.217 201.874 296.217 201.874C296.967 201.876 297.572 202.485 297.57 203.235L297.557 207.304C297.554 208.052 296.947 208.656 296.2 208.656ZM296.227 200.517C296.227 200.517 296.224 200.517 296.223 200.517C295.473 200.515 294.868 199.905 294.871 199.156L294.884 195.087C294.887 194.339 295.494 193.735 296.241 193.735C296.242 193.735 296.244 193.735 296.244 193.735C296.995 193.738 297.6 194.347 297.597 195.096L297.584 199.165C297.581 199.913 296.974 200.517 296.227 200.517ZM296.254 192.379C296.254 192.379 296.251 192.379 296.25 192.379C295.5 192.376 294.895 191.767 294.898 191.018L294.911 186.949C294.914 186.201 295.521 185.597 296.268 185.597C296.269 185.597 296.271 185.597 296.271 185.597C297.022 185.599 297.627 186.208 297.624 186.957L297.611 191.027C297.608 191.774 297.001 192.379 296.254 192.379ZM296.281 184.24H296.277C295.527 184.237 294.922 183.628 294.925 182.879L294.938 178.81C294.941 178.062 295.548 177.458 296.295 177.458H296.299C297.048 177.46 297.654 178.07 297.651 178.819L297.637 182.888C297.635 183.636 297.028 184.24 296.281 184.24ZM296.308 176.101C296.308 176.101 296.305 176.101 296.304 176.101C295.555 176.099 294.949 175.49 294.952 174.74L294.965 170.671C294.968 169.923 295.574 169.319 296.322 169.319H296.326C297.075 169.322 297.681 169.93 297.678 170.68L297.665 174.749C297.662 175.497 297.055 176.101 296.308 176.101ZM296.335 167.962H296.331C295.582 167.96 294.976 167.35 294.979 166.601L294.993 162.532C294.995 161.785 295.602 161.18 296.349 161.18C296.35 161.18 296.352 161.18 296.352 161.18C297.103 161.183 297.708 161.792 297.706 162.541L297.692 166.61C297.689 167.358 297.082 167.962 296.335 167.962ZM296.362 159.823H296.358C295.608 159.821 295.003 159.211 295.006 158.463L295.019 154.393C295.022 153.646 295.629 153.041 296.376 153.041H296.38C297.13 153.044 297.735 153.653 297.732 154.402L297.719 158.471C297.716 159.219 297.109 159.823 296.362 159.823ZM296.389 151.685H296.385C295.635 151.682 295.03 151.073 295.033 150.324L295.046 146.254C295.049 145.507 295.656 144.902 296.403 144.902H296.407C297.157 144.905 297.762 145.514 297.759 146.263L297.745 150.333C297.743 151.08 297.136 151.685 296.389 151.685ZM296.417 143.546H296.412C295.663 143.543 295.058 142.934 295.06 142.185L295.073 138.116C295.076 137.368 295.683 136.763 296.43 136.763H296.434C297.184 136.766 297.789 137.375 297.786 138.124L297.773 142.194C297.77 142.941 297.164 143.546 296.417 143.546ZM296.443 135.407H296.439C295.69 135.404 295.084 134.795 295.087 134.046L295.1 129.977C295.103 129.229 295.71 128.625 296.457 128.625H296.461C297.21 128.627 297.815 129.236 297.813 129.986L297.8 134.055C297.797 134.803 297.191 135.407 296.443 135.407ZM296.47 127.268H296.466C295.717 127.266 295.111 126.656 295.114 125.907L295.128 121.838C295.13 121.09 295.737 120.486 296.484 120.486H296.489C297.238 120.489 297.843 121.098 297.841 121.847L297.827 125.916C297.824 126.664 297.218 127.268 296.47 127.268ZM296.497 119.129H296.493C295.744 119.127 295.138 118.517 295.141 117.768L295.155 113.699C295.157 112.951 295.764 112.347 296.511 112.347H296.516C297.265 112.35 297.87 112.959 297.868 113.708L297.854 117.777C297.851 118.525 297.245 119.129 296.497 119.129ZM296.525 110.991H296.52C295.771 110.988 295.166 110.379 295.168 109.63L295.181 105.56C295.184 104.813 295.791 104.208 296.538 104.208H296.542C297.292 104.211 297.897 104.82 297.894 105.569L297.881 109.639C297.879 110.386 297.272 110.991 296.525 110.991ZM296.552 102.852H296.547C295.798 102.849 295.193 102.241 295.195 101.491L295.208 97.4218C295.211 96.6743 295.818 96.0698 296.565 96.0698H296.569C297.319 96.0725 297.924 96.6814 297.921 97.4307L297.908 101.5C297.905 102.248 297.299 102.852 296.552 102.852Z" fill="url(#paint4_linear_50_285)"/>
<path d="M93.0434 191.887C102.808 191.887 110.724 183.971 110.724 174.206C110.724 164.441 102.808 156.525 93.0434 156.525C83.2787 156.525 75.3628 164.441 75.3628 174.206C75.3628 183.971 83.2787 191.887 93.0434 191.887Z" fill="url(#paint5_linear_50_285)"/>
<path d="M110.692 173.258H93.0434H75.3628C75.3628 173.258 73.9552 183.071 89.7349 209.951C90.4234 211.124 91.6814 211.825 93.0412 211.825C94.401 211.826 95.6613 211.137 96.3497 209.964C112.128 183.082 110.692 173.258 110.692 173.258Z" fill="url(#paint6_linear_50_285)"/>
<path d="M93.0356 212.399V212.498H93.0411C91.5021 212.498 90.0656 211.651 89.2923 210.334C80.0686 194.622 76.6888 184.688 75.478 179.129C75.1329 177.85 74.9345 176.596 74.8718 175.311C74.7649 173.996 74.8467 173.442 74.8563 173.384L74.9028 173.101C75.6152 163.604 83.5197 156.212 93.0434 156.212C102.692 156.212 110.668 163.708 111.207 173.281C111.221 173.407 111.247 173.725 111.236 174.256L111.237 174.321C111.237 176.058 110.992 177.778 110.508 179.434C109.256 184.988 105.855 194.825 96.7885 210.271C96.0104 211.597 94.6264 212.399 93.0356 212.399ZM75.8454 174.053C75.8412 174.318 75.8493 174.697 75.8958 175.267L75.8969 175.265C75.9556 176.483 76.1438 177.655 76.4723 178.869L76.4784 178.889C77.671 184.373 81.0157 194.183 90.1776 209.789C90.7675 210.794 91.8609 211.417 93.0376 211.418L93.0354 211.93V211.417C94.0959 211.417 95.3085 210.787 95.9032 209.774C104.912 194.426 108.275 184.672 109.508 179.192L109.517 179.161C109.977 177.594 110.107 175.966 110.107 174.321L110.004 174.249V174.243C110.004 173.731 110.091 173.455 110.083 173.382L110.132 173.352C109.63 164.316 102.127 157.238 93.0178 157.238C83.9261 157.238 76.4113 164.416 75.893 173.531L75.8783 174.053H75.8454V174.053Z" fill="#91B3FA"/>
<path d="M100.317 181.367C104.304 177.38 104.304 170.916 100.317 166.929C96.3298 162.943 89.8658 162.942 85.879 166.929C81.8921 170.916 81.8922 177.38 85.8791 181.367C89.8659 185.354 96.3299 185.354 100.317 181.367Z" fill="white"/>
<path d="M93.1005 184.928C87.1567 184.928 82.321 180.093 82.321 174.149C82.321 168.205 87.1566 163.369 93.1005 163.369C99.0443 163.369 103.88 168.205 103.88 174.149C103.88 180.093 99.0443 184.928 93.1005 184.928ZM93.1005 164.51C87.7857 164.51 83.4617 168.834 83.4617 174.149C83.4617 179.464 87.7857 183.788 93.1005 183.788C98.4153 183.788 102.739 179.464 102.739 174.149C102.739 168.834 98.4153 164.51 93.1005 164.51Z" fill="#91B3FA"/>
<path d="M83.416 163.52C83.3679 163.52 83.3201 163.499 83.2861 163.46C83.2245 163.388 83.2328 163.28 83.3045 163.219C86.1724 160.756 89.8367 159.399 93.6221 159.399C93.7166 159.399 93.7933 159.476 93.7933 159.57C93.7933 159.665 93.7167 159.741 93.6221 159.741C89.9183 159.741 86.3333 161.068 83.5274 163.478C83.4953 163.506 83.4555 163.52 83.416 163.52Z" fill="white"/>
<path d="M77.9493 175.414C77.8548 175.414 77.7783 175.338 77.7783 175.243C77.7783 172.287 78.5978 169.403 80.1485 166.903C80.1983 166.823 80.3039 166.798 80.3841 166.848C80.4644 166.898 80.489 167.003 80.4393 167.083C78.9223 169.529 78.1204 172.351 78.1204 175.243C78.1203 175.338 78.0438 175.414 77.9493 175.414Z" fill="white"/>
<path d="M192.461 239.775C202.226 239.775 210.142 231.859 210.142 222.095C210.142 212.33 202.226 204.414 192.461 204.414C182.696 204.414 174.78 212.33 174.78 222.095C174.78 231.859 182.696 239.775 192.461 239.775Z" fill="url(#paint7_linear_50_285)"/>
<path d="M210.109 221.147H192.461H174.78C174.78 221.147 173.373 230.96 189.152 257.84C189.841 259.012 191.099 259.713 192.459 259.714C193.819 259.714 195.079 259.025 195.767 257.852C211.545 230.971 210.109 221.147 210.109 221.147Z" fill="url(#paint8_linear_50_285)"/>
<path d="M192.453 260.287V260.387H192.458C190.92 260.387 189.483 259.54 188.71 258.223C179.486 242.511 176.106 232.576 174.895 227.017C174.55 225.739 174.352 224.485 174.289 223.2C174.182 221.885 174.264 221.331 174.274 221.272L174.32 220.99C175.033 211.492 182.937 204.101 192.461 204.101C202.11 204.101 210.085 211.597 210.625 221.17C210.638 221.295 210.664 221.613 210.654 222.145L210.655 222.21C210.655 223.946 210.409 225.667 209.925 227.323C208.673 232.877 205.272 242.713 196.206 258.16C195.428 259.486 194.044 260.287 192.453 260.287ZM175.263 221.942C175.259 222.207 175.267 222.586 175.313 223.156L175.315 223.154C175.373 224.371 175.561 225.544 175.89 226.757L175.896 226.778C177.089 232.261 180.433 242.072 189.595 257.678C190.185 258.683 191.279 259.306 192.455 259.307L192.453 259.819V259.306C193.514 259.306 194.726 258.676 195.321 257.663C204.329 242.315 207.692 232.561 208.926 227.081L208.935 227.049C209.394 225.483 209.525 223.854 209.525 222.21L209.422 222.138V222.132C209.422 221.62 209.509 221.343 209.5 221.271L209.549 221.241C209.047 212.205 201.544 205.127 192.435 205.127C183.344 205.127 175.829 212.305 175.311 221.42L175.296 221.942H175.263Z" fill="#91B3FA"/>
<path d="M199.733 229.256C203.72 225.269 203.72 218.805 199.733 214.818C195.746 210.832 189.282 210.832 185.296 214.818C181.309 218.805 181.309 225.269 185.296 229.256C189.283 233.243 195.746 233.243 199.733 229.256Z" fill="white"/>
<path d="M192.518 232.817C186.574 232.817 181.739 227.981 181.739 222.037C181.739 216.094 186.574 211.258 192.518 211.258C198.462 211.258 203.298 216.094 203.298 222.037C203.298 227.981 198.462 232.817 192.518 232.817ZM192.518 212.399C187.203 212.399 182.879 216.723 182.879 222.038C182.879 227.352 187.203 231.676 192.518 231.676C197.833 231.676 202.157 227.352 202.157 222.038C202.157 216.723 197.833 212.399 192.518 212.399Z" fill="#91B3FA"/>
<path d="M182.834 211.408C182.786 211.408 182.738 211.388 182.704 211.349C182.642 211.277 182.65 211.169 182.722 211.107C185.59 208.644 189.254 207.288 193.04 207.288C193.134 207.288 193.211 207.364 193.211 207.459C193.211 207.553 193.134 207.63 193.04 207.63C189.336 207.63 185.751 208.957 182.945 211.367C182.913 211.395 182.873 211.408 182.834 211.408Z" fill="white"/>
<path d="M177.367 223.303C177.272 223.303 177.196 223.226 177.196 223.132C177.196 220.175 178.015 217.291 179.566 214.792C179.616 214.711 179.721 214.687 179.802 214.736C179.882 214.786 179.907 214.892 179.857 214.972C178.34 217.418 177.538 220.239 177.538 223.132C177.538 223.226 177.461 223.303 177.367 223.303Z" fill="white"/>
<path d="M246.041 85.5016C246.041 111.691 268.074 132.921 295.254 132.921C322.433 132.921 345.684 110.763 345.684 84.574C345.684 58.3848 322.433 38.0819 295.254 38.0819C268.074 38.0819 246.041 59.3124 246.041 85.5016Z" fill="url(#paint9_linear_50_285)"/>
<path d="M341.82 73.9714C341.849 73.9714 341.878 73.9682 341.907 73.9606C342.089 73.9139 342.197 73.7348 342.149 73.5596C341.619 71.6435 340.943 69.7427 340.138 67.9105C340.065 67.7442 339.864 67.6682 339.693 67.7365C339.52 67.8074 339.439 67.9993 339.512 68.1663C340.304 69.9698 340.971 71.8411 341.492 73.7284C341.532 73.8749 341.67 73.9714 341.82 73.9714Z" fill="#91B3FA"/>
<path d="M334.3 59.1525C334.371 59.1525 334.443 59.1309 334.504 59.0866C334.654 58.9779 334.684 58.772 334.571 58.6282C325.453 46.9775 310.766 40.0225 295.283 40.0225C288.671 40.0225 282.275 41.3144 276.274 43.861C276.103 43.9339 276.024 44.1277 276.1 44.2927C276.176 44.4583 276.376 44.5331 276.548 44.4609C282.462 41.9501 288.766 40.6773 295.283 40.6773C310.554 40.6773 325.038 47.5352 334.028 59.0221C334.095 59.1078 334.196 59.1525 334.3 59.1525Z" fill="#91B3FA"/>
<path d="M252.736 85.5016C252.736 108.171 271.809 126.549 295.336 126.549C318.863 126.549 338.989 107.368 338.989 84.6988C338.989 62.0291 318.863 44.4547 295.336 44.4547C271.809 44.4547 252.736 62.8319 252.736 85.5016Z" fill="url(#paint10_linear_50_285)"/>
<path d="M252.736 85.5016C252.736 62.8321 271.809 44.4546 295.336 44.4546C308.075 44.4546 319.816 49.6097 327.906 57.9346L295.09 84.2439L288.344 125.995C268.144 122.781 252.736 105.877 252.736 85.5016Z" fill="url(#paint11_linear_50_285)"/>
<path opacity="0.22" d="M258.534 82.648C258.534 103.107 276.105 119.692 297.778 119.692C319.452 119.692 337.993 102.382 337.993 81.9233C337.993 61.4644 319.452 45.6039 297.778 45.6039C276.105 45.6039 258.534 62.1891 258.534 82.648Z" fill="url(#paint12_linear_50_285)"/>
<path opacity="0.78" d="M328.102 83.3726C328.207 85.115 329.758 86.4453 331.567 86.3439C333.375 86.2425 334.756 84.7478 334.65 83.0055C334.545 81.2632 332.994 79.9329 331.185 80.0342C329.377 80.1356 327.997 81.6302 328.102 83.3726Z" fill="white"/>
<path opacity="0.78" d="M257.246 87.3465C257.351 89.0888 258.903 90.4191 260.711 90.3178C262.519 90.2163 263.9 88.7217 263.795 86.9792C263.689 85.2369 262.138 83.9066 260.33 84.0081C258.522 84.1094 257.141 85.604 257.246 87.3465Z" fill="white"/>
<path opacity="0.78" d="M301.735 115.705C299.953 116.019 298.773 117.665 299.098 119.382C299.424 121.099 301.132 122.236 302.914 121.923C304.696 121.609 305.876 119.963 305.551 118.246C305.225 116.529 303.517 115.392 301.735 115.705Z" fill="white"/>
<path opacity="0.78" d="M288.983 48.429C287.201 48.7426 286.02 50.3885 286.346 52.1055C286.671 53.8225 288.379 54.96 290.161 54.6464C291.943 54.3329 293.124 52.6866 292.798 50.9698C292.473 49.253 290.764 48.1155 288.983 48.429Z" fill="white"/>
<path opacity="0.78" d="M278.419 117.512C278.085 118.322 278.169 119.08 278.605 119.206C279.041 119.332 279.665 118.777 279.998 117.967C280.331 117.156 280.248 116.398 279.812 116.272C279.376 116.146 278.752 116.701 278.419 117.512Z" fill="white"/>
<path opacity="0.78" d="M306.924 53.7C306.591 54.5102 306.674 55.2688 307.11 55.3945C307.546 55.5202 308.17 54.9651 308.503 54.155C308.836 53.3447 308.753 52.586 308.317 52.4604C307.881 52.3348 307.257 52.8899 306.924 53.7Z" fill="white"/>
<path opacity="0.78" d="M263.535 105.381C262.814 105.907 262.476 106.597 262.781 106.922C263.086 107.248 263.918 107.086 264.639 106.56C265.361 106.034 265.698 105.344 265.394 105.019C265.089 104.693 264.257 104.855 263.535 105.381Z" fill="white"/>
<path opacity="0.78" d="M322.282 65.1065C321.561 65.6322 321.223 66.3222 321.528 66.6477C321.833 66.9733 322.665 66.811 323.387 66.2853C324.108 65.7596 324.446 65.0694 324.141 64.7439C323.836 64.4185 323.004 64.5809 322.282 65.1065Z" fill="white"/>
<path opacity="0.78" d="M261.666 69.2501C260.849 68.8755 260.058 68.9047 259.899 69.3155C259.739 69.7263 260.272 70.3629 261.089 70.7377C261.906 71.1124 262.697 71.0832 262.856 70.6724C263.015 70.2616 262.483 69.6249 261.666 69.2501Z" fill="white"/>
<path opacity="0.78" d="M325.833 100.929C325.016 100.554 324.225 100.583 324.066 100.994C323.906 101.405 324.439 102.042 325.256 102.416C326.073 102.791 326.864 102.762 327.023 102.351C327.182 101.94 326.649 101.303 325.833 100.929Z" fill="white"/>
<path opacity="0.78" d="M275.224 55.7535C274.728 55.0247 274.036 54.6539 273.678 54.9252C273.321 55.1966 273.433 56.0074 273.929 56.7363C274.425 57.465 275.117 57.8358 275.474 57.5644C275.832 57.2933 275.72 56.4823 275.224 55.7535Z" fill="white"/>
<path opacity="0.78" d="M312.993 114.93C312.497 114.201 311.805 113.831 311.447 114.102C311.09 114.373 311.202 115.184 311.698 115.913C312.194 116.642 312.886 117.013 313.244 116.741C313.601 116.47 313.489 115.659 312.993 114.93Z" fill="white"/>
<path d="M296.662 84.2295L323.008 96.8907C323.519 97.136 324.116 96.7675 324.099 96.2182L323.996 92.9503C323.975 92.3147 324.753 91.9624 325.248 92.3829L344.297 108.544C344.88 109.038 344.401 109.956 343.641 109.8L319.107 104.752C318.52 104.632 318.307 103.93 318.735 103.524L321.607 100.795C321.962 100.458 321.886 99.8871 321.454 99.6474L295.949 85.5098C295.594 85.3129 295.467 84.8788 295.663 84.5321C295.858 84.1887 296.299 84.0551 296.662 84.2295Z" fill="url(#paint13_linear_50_285)"/>
<path opacity="0.7" d="M341.335 108.469C341.58 108.469 341.802 108.337 341.914 108.115C342.047 107.849 341.979 107.546 341.743 107.358L337.574 104.037C337.43 103.922 337.215 103.942 337.096 104.081C336.976 104.221 336.997 104.427 337.141 104.542L341.31 107.863C335.756 106.641 322.747 103.909 322.477 103.883C322.295 103.863 322.123 103.995 322.104 104.175C322.086 104.353 322.218 104.512 322.4 104.534C322.79 104.594 332.759 106.681 341.191 108.453C341.24 108.463 341.288 108.469 341.335 108.469Z" fill="white"/>
<path d="M293.304 83.0674L293.35 61.1836C293.342 60.6991 292.801 60.3978 292.361 60.6338L289.748 62.0371C289.24 62.3101 288.639 61.8667 288.779 61.3226L294.183 40.3993C294.349 39.7593 295.289 39.7484 295.47 40.3846L301.319 60.9384C301.459 61.4302 300.976 61.8749 300.472 61.7171L297.09 60.6574C296.672 60.5264 296.239 60.8154 296.22 61.2385L294.633 83.086C294.617 83.4338 294.316 83.7057 293.954 83.6984C293.597 83.6908 293.309 83.4121 293.304 83.0674Z" fill="url(#paint14_linear_50_285)"/>
<path opacity="0.7" d="M299.524 58.9318C299.561 58.9318 299.598 58.9256 299.634 58.9121C299.786 58.8546 299.862 58.6906 299.806 58.5433C299.697 58.2264 297.35 49.8594 295.369 42.7798C295.299 42.5294 295.078 42.3648 294.802 42.371C294.532 42.3778 294.313 42.5531 294.256 42.8074L293.249 47.2985C293.214 47.4542 293.316 47.6081 293.478 47.6414C293.638 47.6757 293.799 47.5765 293.834 47.4203L294.841 42.9292C296.101 47.6148 299.158 58.5338 299.246 58.7486C299.292 58.8624 299.405 58.9318 299.524 58.9318Z" fill="white"/>
<path d="M295.555 87.6887C297.49 87.6887 299.058 86.1775 299.058 84.3135C299.058 82.4494 297.49 80.9383 295.555 80.9383C293.621 80.9383 292.053 82.4494 292.053 84.3135C292.053 86.1775 293.621 87.6887 295.555 87.6887Z" fill="url(#paint15_linear_50_285)"/>
<path d="M138.45 110.552C138.45 136.741 160.484 157.972 187.663 157.972C214.843 157.972 238.094 135.814 238.094 109.624C238.094 83.4351 214.843 63.1323 187.663 63.1323C160.484 63.1323 138.45 84.3629 138.45 110.552Z" fill="url(#paint16_linear_50_285)"/>
<path d="M234.23 99.0218C234.259 99.0218 234.288 99.0186 234.317 99.011C234.499 98.9643 234.607 98.7852 234.559 98.6101C234.029 96.6941 233.353 94.7933 232.548 92.961C232.475 92.7947 232.274 92.7187 232.102 92.7871C231.929 92.8579 231.849 93.0499 231.922 93.2168C232.714 95.0203 233.38 96.8916 233.901 98.779C233.942 98.9253 234.08 99.0218 234.23 99.0218Z" fill="#91B3FA"/>
<path d="M226.709 84.203C226.78 84.203 226.852 84.1813 226.914 84.1371C227.063 84.0283 227.093 83.8225 226.98 83.6786C217.863 72.0279 203.175 65.0729 187.693 65.0729C181.08 65.0729 174.685 66.3648 168.684 68.9115C168.512 68.9844 168.434 69.1782 168.51 69.3431C168.585 69.5088 168.786 69.5836 168.958 69.5113C174.872 67.0005 181.175 65.7278 187.693 65.7278C202.963 65.7278 217.447 72.5856 226.438 84.0725C226.505 84.1582 226.606 84.203 226.709 84.203Z" fill="#91B3FA"/>
<path d="M145.146 110.552C145.146 133.222 164.218 151.599 187.745 151.599C211.272 151.599 231.398 132.419 231.398 109.749C231.398 87.0794 211.272 69.505 187.745 69.505C164.218 69.505 145.146 87.8823 145.146 110.552Z" fill="url(#paint17_linear_50_285)"/>
<path d="M145.146 110.552C145.146 87.8823 164.218 69.505 187.745 69.505C200.485 69.505 212.226 74.6601 220.315 82.985L187.5 109.294L180.754 151.046C160.554 147.832 145.146 130.927 145.146 110.552Z" fill="url(#paint18_linear_50_285)"/>
<path opacity="0.25" d="M150.944 107.698C150.944 128.157 168.514 144.743 190.188 144.743C211.862 144.743 230.402 127.433 230.402 106.974C230.402 86.5147 211.862 70.6543 190.188 70.6543C168.514 70.6543 150.944 87.2395 150.944 107.698Z" fill="white"/>
<path opacity="0.78" d="M220.512 108.423C220.617 110.165 222.168 111.496 223.976 111.394C225.785 111.293 227.165 109.798 227.06 108.056C226.955 106.314 225.404 104.983 223.595 105.085C221.787 105.186 220.406 106.681 220.512 108.423Z" fill="white"/>
<path opacity="0.78" d="M149.656 112.397C149.761 114.139 151.313 115.47 153.121 115.368C154.929 115.267 156.31 113.772 156.204 112.03C156.099 110.287 154.548 108.957 152.74 109.058C150.931 109.16 149.551 110.654 149.656 112.397Z" fill="white"/>
<path opacity="0.78" d="M194.145 140.756C192.363 141.069 191.183 142.715 191.508 144.432C191.834 146.149 193.542 147.287 195.324 146.973C197.106 146.66 198.286 145.013 197.961 143.297C197.635 141.58 195.927 140.442 194.145 140.756Z" fill="white"/>
<path opacity="0.78" d="M181.392 73.4795C179.61 73.7931 178.43 75.4392 178.755 77.1561C179.081 78.873 180.789 80.0106 182.571 79.6969C184.353 79.3834 185.534 77.7373 185.208 76.0203C184.883 74.3035 183.174 73.1659 181.392 73.4795Z" fill="white"/>
<path opacity="0.78" d="M170.829 142.562C170.495 143.372 170.578 144.131 171.015 144.256C171.451 144.382 172.074 143.827 172.408 143.017C172.741 142.207 172.658 141.448 172.222 141.322C171.785 141.197 171.162 141.752 170.829 142.562Z" fill="white"/>
<path opacity="0.78" d="M199.334 78.7504C199 79.5606 199.084 80.3193 199.52 80.4449C199.956 80.5706 200.579 80.0155 200.913 79.2054C201.246 78.3951 201.163 77.6364 200.727 77.5108C200.291 77.3853 199.667 77.9403 199.334 78.7504Z" fill="white"/>
<path opacity="0.78" d="M155.945 130.432C155.224 130.957 154.886 131.647 155.191 131.973C155.496 132.298 156.328 132.136 157.049 131.61C157.771 131.085 158.108 130.395 157.803 130.069C157.499 129.744 156.666 129.906 155.945 130.432Z" fill="white"/>
<path opacity="0.78" d="M214.692 90.1569C213.971 90.6826 213.633 91.3726 213.938 91.6981C214.243 92.0237 215.075 91.8614 215.796 91.3357C216.518 90.81 216.855 90.1198 216.55 89.7943C216.246 89.469 215.413 89.6312 214.692 90.1569Z" fill="white"/>
<path opacity="0.78" d="M154.076 94.3005C153.259 93.9259 152.468 93.9551 152.308 94.3659C152.149 94.7767 152.682 95.4133 153.499 95.7881C154.315 96.1628 155.107 96.1336 155.266 95.7228C155.425 95.3121 154.892 94.6753 154.076 94.3005Z" fill="white"/>
<path opacity="0.78" d="M218.243 125.979C217.426 125.605 216.635 125.634 216.475 126.045C216.316 126.455 216.849 127.092 217.666 127.467C218.482 127.842 219.274 127.812 219.433 127.401C219.592 126.991 219.059 126.354 218.243 125.979Z" fill="white"/>
<path opacity="0.78" d="M167.633 80.804C167.137 80.0752 166.445 79.7044 166.088 79.9757C165.73 80.2472 165.843 81.0579 166.339 81.7868C166.835 82.5155 167.527 82.8864 167.884 82.615C168.242 82.3437 168.129 81.5327 167.633 80.804Z" fill="white"/>
<path opacity="0.78" d="M205.403 139.981C204.907 139.252 204.215 138.881 203.857 139.152C203.5 139.424 203.612 140.234 204.108 140.963C204.604 141.692 205.296 142.063 205.654 141.792C206.011 141.52 205.899 140.709 205.403 139.981Z" fill="white"/>
<path d="M186.402 110.427L195.248 82.5663C195.419 82.0265 194.971 81.4866 194.43 81.5807L191.208 82.1409C190.582 82.2498 190.124 81.5298 190.471 80.9804L203.804 59.855C204.212 59.2087 205.188 59.5547 205.14 60.3284L203.579 85.3284C203.542 85.9267 202.877 86.2352 202.415 85.8688L199.31 83.4071C198.927 83.1029 198.372 83.2583 198.196 83.7198L187.77 110.953C187.625 111.332 187.213 111.519 186.842 111.373C186.475 111.229 186.281 110.811 186.402 110.427Z" fill="url(#paint19_linear_50_285)"/>
<path d="M204.144 62.7986C204.11 62.5562 203.949 62.3551 203.713 62.2754C203.432 62.1802 203.141 62.2908 202.988 62.5508L200.284 67.1434C200.19 67.3025 200.24 67.5124 200.394 67.6108C200.549 67.7098 200.75 67.6606 200.844 67.5011L203.548 62.9085C203.116 68.5794 202.234 81.8424 202.246 82.1133C202.251 82.2966 202.406 82.4477 202.587 82.4415C202.766 82.4349 202.905 82.2819 202.901 82.0982C202.906 81.7037 203.576 71.5404 204.149 62.9436C204.153 62.894 204.151 62.8457 204.144 62.7986Z" fill="url(#paint20_linear_50_285)"/>
<path d="M187.477 109.245L202.976 124.695C203.325 125.031 203.92 124.859 204.062 124.381L204.907 121.538C205.071 120.984 205.81 120.87 206.097 121.353L217.139 139.929C217.476 140.498 216.822 141.172 216.243 140.853L197.535 130.523C197.087 130.276 197.112 129.62 197.579 129.374L200.714 127.72C201.101 127.515 201.201 127.005 200.914 126.693L186.528 110.175C186.292 109.919 186.311 109.513 186.571 109.262C186.828 109.013 187.229 109.006 187.477 109.245Z" fill="url(#paint21_linear_50_285)"/>
<path d="M200.223 130.663C200.198 130.689 200.176 130.72 200.16 130.755C200.094 130.903 200.157 131.073 200.301 131.137C200.603 131.283 208.194 135.512 214.614 139.094C214.841 139.22 215.113 139.18 215.303 138.979C215.489 138.783 215.519 138.504 215.379 138.284L212.901 134.405C212.815 134.271 212.633 134.235 212.496 134.327C212.359 134.416 212.316 134.6 212.402 134.735L214.88 138.614C210.667 136.207 200.764 130.684 200.55 130.595C200.437 130.547 200.308 130.578 200.223 130.663Z" fill="url(#paint22_linear_50_285)"/>
<path d="M187.965 112.739C189.9 112.739 191.468 111.228 191.468 109.364C191.468 107.5 189.9 105.989 187.965 105.989C186.031 105.989 184.463 107.5 184.463 109.364C184.463 111.228 186.031 112.739 187.965 112.739Z" fill="url(#paint23_linear_50_285)"/>
<path d="M35.1149 77.5908C35.1149 103.78 57.1483 125.011 84.3279 125.011C111.507 125.011 134.758 102.852 134.758 76.6632C134.758 50.4741 111.508 30.1711 84.3279 30.1711C57.1482 30.1711 35.1149 51.4017 35.1149 77.5908Z" fill="url(#paint24_linear_50_285)"/>
<path d="M130.894 66.0606C130.924 66.0606 130.953 66.0574 130.982 66.0498C131.163 66.0031 131.271 65.824 131.223 65.6489C130.694 63.7328 130.017 61.832 129.212 59.9998C129.139 59.8335 128.939 59.7575 128.767 59.8258C128.594 59.8967 128.513 60.0886 128.587 60.2556C129.379 62.0591 130.045 63.9304 130.566 65.8177C130.607 65.9641 130.744 66.0606 130.894 66.0606Z" fill="#91B3FA"/>
<path d="M123.374 51.2417C123.445 51.2417 123.517 51.22 123.578 51.1758C123.728 51.0671 123.758 50.8613 123.645 50.7174C114.527 39.0667 99.8402 32.1117 84.3573 32.1117C77.745 32.1117 71.3492 33.4036 65.3484 35.9502C65.1768 36.0231 65.0988 36.2169 65.1745 36.3819C65.2499 36.5475 65.4507 36.6223 65.6226 36.5501C71.5364 34.0393 77.8399 32.7665 84.3573 32.7665C99.6282 32.7665 114.112 39.6244 123.102 51.1113C123.169 51.197 123.271 51.2417 123.374 51.2417Z" fill="#91B3FA"/>
<path d="M41.8105 77.5908C41.8105 100.261 60.8829 118.638 84.4098 118.638C107.937 118.638 128.063 99.4574 128.063 76.7879C128.063 54.1182 107.937 36.5438 84.4098 36.5438C60.8829 36.5438 41.8105 54.9211 41.8105 77.5908Z" fill="url(#paint25_linear_50_285)"/>
<path d="M41.8106 77.5908C41.8106 54.9211 60.8828 36.5438 84.4098 36.5438C97.1496 36.5438 108.89 41.6989 116.98 50.0238L84.1645 76.3331L77.4184 118.084C57.2183 114.87 41.8106 97.9658 41.8106 77.5908Z" fill="url(#paint26_linear_50_285)"/>
<path opacity="0.22" d="M47.6087 74.7372C47.6087 95.1961 65.1788 111.781 86.8524 111.781C108.526 111.781 127.067 94.4716 127.067 74.0125C127.067 53.5536 108.526 37.6931 86.8524 37.6931C65.1788 37.6931 47.6087 54.2783 47.6087 74.7372Z" fill="url(#paint27_linear_50_285)"/>
<path opacity="0.78" d="M117.176 75.4618C117.281 77.2043 118.833 78.5345 120.641 78.4331C122.449 78.3317 123.83 76.837 123.724 75.0947C123.619 73.3524 122.068 72.0221 120.26 72.1234C118.451 72.2248 117.071 73.7194 117.176 75.4618Z" fill="white"/>
<path opacity="0.78" d="M46.3206 79.4357C46.4257 81.1781 47.9771 82.5083 49.7853 82.4068C51.5936 82.3055 52.9742 80.8108 52.869 79.0683C52.7637 77.326 51.2125 75.9957 49.4043 76.0971C47.5959 76.1986 46.2153 77.6932 46.3206 79.4357Z" fill="white"/>
<path opacity="0.78" d="M90.8097 107.794C89.0278 108.108 87.8473 109.754 88.1726 111.471C88.4981 113.188 90.2065 114.326 91.9883 114.012C93.7701 113.698 94.9507 112.052 94.6253 110.336C94.2998 108.619 92.5915 107.481 90.8097 107.794Z" fill="white"/>
<path opacity="0.78" d="M78.0569 40.5183C76.2749 40.8319 75.0943 42.478 75.4198 44.1949C75.7453 45.9119 77.4535 47.0493 79.2354 46.7357C81.0172 46.4222 82.198 44.7761 81.8725 43.0592C81.5472 41.3423 79.8388 40.2047 78.0569 40.5183Z" fill="white"/>
<path opacity="0.78" d="M67.4931 109.601C67.1597 110.411 67.2429 111.17 67.6791 111.295C68.115 111.421 68.7388 110.866 69.072 110.056C69.4053 109.246 69.322 108.487 68.8861 108.361C68.4499 108.236 67.8262 108.791 67.4931 109.601Z" fill="white"/>
<path opacity="0.78" d="M95.9982 45.7892C95.6649 46.5994 95.7482 47.3581 96.1842 47.4837C96.6203 47.6094 97.2439 47.0543 97.5773 46.2442C97.9106 45.4339 97.8273 44.6752 97.3914 44.5494C96.9552 44.4241 96.3315 44.9791 95.9982 45.7892Z" fill="white"/>
<path opacity="0.78" d="M52.6096 97.4703C51.8881 97.9961 51.5504 98.6862 51.8554 99.0117C52.1604 99.3373 52.9923 99.1749 53.7139 98.6493C54.4353 98.1234 54.7729 97.4334 54.4679 97.1079C54.1629 96.7823 53.3309 96.9447 52.6096 97.4703Z" fill="white"/>
<path opacity="0.78" d="M111.356 57.1957C110.635 57.7214 110.297 58.4114 110.602 58.7369C110.907 59.0625 111.739 58.9003 112.461 58.3745C113.182 57.8488 113.52 57.1586 113.215 56.8331C112.91 56.5078 112.078 56.6701 111.356 57.1957Z" fill="white"/>
<path opacity="0.78" d="M50.7401 61.3393C49.9234 60.9647 49.1323 60.9939 48.973 61.4047C48.8136 61.8155 49.3465 62.4522 50.1632 62.8269C50.9799 63.2016 51.7711 63.1724 51.9303 62.7616C52.0897 62.3509 51.5568 61.7141 50.7401 61.3393Z" fill="white"/>
<path opacity="0.78" d="M114.907 93.0181C114.09 92.6434 113.299 92.6726 113.14 93.0834C112.981 93.4942 113.514 94.131 114.33 94.5057C115.147 94.8805 115.938 94.8511 116.097 94.4403C116.257 94.0295 115.724 93.3927 114.907 93.0181Z" fill="white"/>
<path opacity="0.78" d="M64.2978 47.8429C63.8019 47.114 63.1098 46.7433 62.7523 47.0146C62.3947 47.286 62.5071 48.0968 63.0031 48.8256C63.4992 49.5543 64.1912 49.9252 64.5485 49.6538C64.9062 49.3825 64.7938 48.5716 64.2978 47.8429Z" fill="white"/>
<path opacity="0.78" d="M102.067 107.019C101.571 106.291 100.879 105.92 100.522 106.191C100.164 106.463 100.276 107.273 100.772 108.002C101.268 108.731 101.96 109.102 102.318 108.83C102.676 108.559 102.563 107.748 102.067 107.019Z" fill="white"/>
<path d="M84.421 74.949L106.591 94.0004C107.02 94.3694 107.693 94.1683 107.818 93.6333L108.564 90.45C108.71 89.8308 109.551 89.6919 109.921 90.2261L124.136 110.769C124.571 111.397 123.87 112.16 123.177 111.812L100.786 100.584C100.251 100.315 100.227 99.5825 100.745 99.3009L104.226 97.4085C104.656 97.1746 104.73 96.6037 104.375 96.2604L83.4011 76.0011C83.109 75.719 83.0986 75.2667 83.3779 74.9825C83.6544 74.7013 84.1153 74.6865 84.421 74.949Z" fill="url(#paint28_linear_50_285)"/>
<path opacity="0.7" d="M121.294 109.929C121.531 109.992 121.779 109.922 121.945 109.737C122.143 109.515 122.155 109.204 121.975 108.961L118.809 104.675C118.699 104.526 118.487 104.49 118.336 104.593C118.184 104.697 118.15 104.901 118.26 105.051L121.427 109.337C116.378 106.718 104.52 100.712 104.267 100.617C104.096 100.55 103.896 100.633 103.831 100.802C103.767 100.969 103.853 101.157 104.024 101.225C104.385 101.384 113.474 105.982 121.159 109.877C121.203 109.899 121.249 109.916 121.294 109.929Z" fill="white"/>
<path d="M85.2903 78.4179L66.1267 88.985C65.7066 89.2265 65.7056 89.8462 66.1249 90.116L68.6188 91.7213C69.104 92.0336 69.0077 92.7744 68.4636 92.9152L47.543 98.3302C46.9031 98.4958 46.4377 97.6787 46.9066 97.212L62.0492 82.133C62.4116 81.7722 63.0349 81.9796 63.1408 82.4965L63.8533 85.9685C63.9414 86.3977 64.4038 86.6358 64.7833 86.4477L84.662 77.2465C84.9738 77.0918 85.3577 77.2234 85.5264 77.543C85.6935 77.8593 85.5892 78.2459 85.2903 78.4179Z" fill="url(#paint29_linear_50_285)"/>
<path opacity="0.7" d="M61.1643 84.6757C61.1466 84.6438 61.1232 84.6146 61.0941 84.5896C60.9699 84.4844 60.7898 84.4976 60.6881 84.618C60.4637 84.8668 54.2832 90.9755 49.0505 96.1391C48.8656 96.3218 48.8287 96.5949 48.9681 96.8337C49.1047 97.0664 49.3644 97.1735 49.6146 97.1L54.0309 95.804C54.1838 95.759 54.2687 95.5946 54.2194 95.4369C54.172 95.2803 54.0073 95.1879 53.8535 95.2326L49.4372 96.5286C52.9249 93.1554 60.9937 85.1891 61.1391 85.0083C61.2163 84.9127 61.2222 84.7803 61.1643 84.6757Z" fill="white"/>
<path d="M84.6299 79.7779C86.5644 79.7779 88.1326 78.2667 88.1326 76.4027C88.1326 74.5386 86.5644 73.0275 84.6299 73.0275C82.6954 73.0275 81.1272 74.5386 81.1272 76.4027C81.1272 78.2667 82.6954 79.7779 84.6299 79.7779Z" fill="url(#paint30_linear_50_285)"/>
<path d="M312.284 211.414L328.109 250.443L330.709 249.72L314.544 210.691L312.284 211.414Z" fill="url(#paint31_linear_50_285)"/>
<path d="M305.641 160.372C305.641 160.372 310.47 162.721 311.358 165.419C312.07 167.584 317.41 167.863 317.937 172.121C318.209 174.32 319.836 176.08 322.026 176.416C327.479 177.251 335.883 180.083 337.228 189.551C338.254 196.778 334.57 199.519 330.703 200.467C327.864 201.164 325.977 203.926 326.551 206.793C327.102 209.543 326.28 212.722 321.516 215.236C310.84 220.869 300.179 201.89 300.179 201.89L297.994 168.752L305.641 160.372Z" fill="url(#paint32_linear_50_285)"/>
<path d="M247.551 152.516C247.551 152.516 268.866 186.232 294.213 192.744C294.213 192.744 289.275 206.811 285.462 208.421C285.462 208.421 254.278 182.402 246.265 157.307L247.551 152.516Z" fill="url(#paint33_linear_50_285)"/>
<path d="M349.523 368.161L350.214 373.841C350.345 374.918 351.193 375.77 352.272 375.893C354.092 376.101 357.014 376.314 359.873 376.012C361.127 375.88 361.942 374.609 361.56 373.407C360.863 371.214 359.588 367.923 357.75 365.986H351.45C350.285 365.986 349.383 367.005 349.523 368.161Z" fill="url(#paint34_linear_50_285)"/>
<path d="M303.102 354.492C303.188 355.91 303.259 357.219 303.31 358.385C303.409 360.647 302.824 362.883 301.637 364.81L295.445 374.866L311.181 365.58L311.495 363.659L308.919 360.117L309.318 355.336C307.23 355.126 305.156 354.844 303.102 354.492Z" fill="url(#paint35_linear_50_285)"/>
<path d="M294.408 376.322H299.43C300.37 376.322 301.257 375.891 301.83 375.146C303.395 373.112 306.639 369.143 308.19 369.039C310.278 368.9 310.011 376.322 310.011 376.322H311.181L312.664 367.099C313.037 364.778 311.882 362.479 309.798 361.392C309.798 361.392 309.321 364.921 306.733 366.483C304.145 368.044 296.202 373.635 296.202 373.635C296.202 373.635 295.229 373.496 294.161 373.689C292.577 373.976 292.798 376.322 294.408 376.322Z" fill="url(#paint36_linear_50_285)"/>
<path d="M352.756 355.179C352.239 353.888 351.539 351.201 350.761 347.908C348.664 348.519 346.586 349.172 344.532 349.889C345.126 351.229 345.597 352.356 345.91 353.21C349.226 362.245 350.388 369.782 350.433 370.496C350.502 371.611 351.889 372.681 355.713 372.681C357.686 372.681 358.653 371.889 359.126 371.124C359.53 370.471 359.55 369.653 359.21 368.965C358.004 366.523 354.174 358.718 352.756 355.179Z" fill="url(#paint37_linear_50_285)"/>
<path d="M302.308 176.98L306.683 196.632C307.102 198.363 305.524 198.08 303.774 197.75C300.908 197.21 297.214 196.097 295.979 193.867C295.854 193.64 295.791 193.383 295.755 193.126L293.876 179.499C293.727 178.418 294.311 177.369 295.309 176.926L298.936 175.318C300.332 174.699 301.949 175.496 302.308 176.98Z" fill="url(#paint38_linear_50_285)"/>
<path d="M293.928 159.066C293.928 159.066 289.27 162.219 287.269 170.248C285.267 178.277 288.52 181.157 291.854 180.981C295.188 180.804 300.022 179.773 304.211 174.013C308.399 168.253 300.032 155.213 293.928 159.066Z" fill="url(#paint39_linear_50_285)"/>
<path d="M299.987 170.775C299.987 170.775 301.693 159.269 292.141 161.029L290.21 163.04C290.21 163.04 285.534 157.774 290.708 153.794C295.883 149.814 303.063 150.833 307.035 158.079C311.008 165.326 312.449 170.417 309.12 174.92C305.79 179.423 303.286 175.561 303.286 175.561C303.286 175.561 304.813 171.664 303.546 169.992C302.279 168.32 300.644 170.964 300.644 170.964L299.987 170.775Z" fill="url(#paint40_linear_50_285)"/>
<path d="M300.539 172.815C300.539 172.815 301.381 166.895 304.405 168.588C307.428 170.28 303.315 174.117 301.666 175.423L300.539 172.815Z" fill="url(#paint41_linear_50_285)"/>
<path d="M247.697 159.457C247.632 160.153 250.219 160.633 251.042 157.668C250.815 156.381 250.414 150.744 249.427 149.868C244.17 145.204 234.796 139.957 234.796 139.957C233.748 141.558 235.123 142.612 235.123 142.612L239.802 145.77C239.314 147.386 238.602 148.816 238.521 150.661C238.46 152.059 238.976 153.427 239.904 154.488C240.835 155.552 242.089 156.926 243.219 157.969C245.358 159.943 247.697 159.457 247.697 159.457Z" fill="url(#paint42_linear_50_285)"/>
<path d="M245.155 157.159L245.87 156.865C245.775 156.634 243.53 151.177 242.444 150.042C242.031 149.612 241.832 149.243 241.851 148.946C241.86 148.785 241.939 148.626 242.091 148.464L245.877 150.489L247.549 153.107L248.201 152.69L246.42 149.901L241.985 147.53L241.785 147.693C241.337 148.06 241.105 148.454 241.078 148.898C241.045 149.427 241.309 149.976 241.884 150.577C242.703 151.432 244.523 155.618 245.155 157.159Z" fill="url(#paint43_linear_50_285)"/>
<path d="M289.862 241.583L288.432 249.577C290.406 268.008 293.69 287.452 299.115 307.887C300.793 324.7 302.006 340.868 302.675 356.286C304.195 356.875 305.941 357.353 310.362 356.512C311.944 334.582 316.017 313.478 308.327 307L306.519 266.532L300.188 242.342L289.862 241.583Z" fill="url(#paint44_linear_50_285)"/>
<path d="M299.962 241.438L305.388 270.15C311.756 285.778 318.103 301.274 323.022 307.679C330.274 318.09 337.502 335.216 344.726 353.572C347.326 354.027 349.815 353.291 352.187 351.312C349.485 329.888 344.217 311.89 331.84 303.383C329.287 273.77 325.514 246.126 308.554 239.762L299.962 241.438Z" fill="url(#paint45_linear_50_285)"/>
<path d="M308.554 239.763C303.173 216.96 316.805 204.063 316.805 204.063C308.204 195.806 292.531 192.049 292.531 192.049C292.531 192.049 277.577 202.982 279.351 211.54C280.39 216.556 289.863 241.583 289.863 241.583C289.863 241.583 298.621 245.729 308.554 239.763Z" fill="url(#paint46_linear_50_285)"/>
<path d="M309.163 252.144L327.733 245.767C328.845 245.385 330.046 246.041 330.325 247.183L334.125 262.747C334.368 263.742 333.82 264.759 332.855 265.104L314.468 271.671C313.358 272.067 312.147 271.421 311.858 270.278L307.874 254.525C307.619 253.517 308.18 252.482 309.163 252.144Z" fill="url(#paint47_linear_50_285)"/>
<path d="M308.826 258.291L323.022 260.88L331.442 251.759L330.324 247.183C330.045 246.041 328.845 245.385 327.733 245.767L309.163 252.144C308.179 252.482 307.619 253.517 307.874 254.525L308.826 258.291Z" fill="url(#paint48_linear_50_285)"/>
<path d="M309.91 256.321C306.831 232.112 301.916 204.843 309.684 198.709L313.188 200.725C304.107 203.999 307.911 229.556 311.945 255.791L309.91 256.321Z" fill="url(#paint49_linear_50_285)"/>
<path d="M316.805 204.063C316.805 204.063 347.341 225.91 320.711 248.867C320.711 248.867 319.695 250.015 317.698 250.613C316.689 250.914 313.706 253.171 312.193 254.348C311.707 254.726 311.004 254.598 310.678 254.075C310.421 253.666 310.391 253.155 310.598 252.718L314.378 244.724C315.428 243.745 317.035 243.675 318.165 244.561C318.887 245.125 319.943 244.889 320.347 244.066C322.405 239.874 326.293 227.542 310.382 213.608C309.784 213.084 309.633 212.218 310 211.513C311.118 209.365 313.674 205.101 316.805 204.063Z" fill="url(#paint50_linear_50_285)"/>
<path d="M115.911 331.916C115.911 331.916 98.7851 350.797 84.4822 342.817C72.987 336.404 89.3184 338.08 103.172 335.05C104.259 334.812 103.974 333.187 102.871 333.333C92.0323 334.77 75.4938 335.945 72.6213 330.293C68.2847 321.761 72.4901 324.528 85.6881 325.761C98.8861 326.993 101.429 323.734 92.8141 321.705C84.1992 319.675 70.4945 324.164 67.3019 319.99C64.1094 315.815 62.3643 307.528 61.0918 303.965C59.8192 300.401 77.5205 295.053 82.306 299.732C87.0916 304.41 90.9777 314.853 96.6569 316.759C102.336 318.666 96.2269 309.429 92.4604 304.661C88.6938 299.893 87.2006 296.349 94.7257 297.487C102.251 298.624 106.229 307.808 107.022 314.664C107.815 321.519 110.466 325.354 110.346 321.962C110.226 318.57 108.995 308.169 106.59 305.042C104.185 301.915 121.354 305.731 115.911 331.916Z" fill="#7D97F4"/>
<path opacity="0.53" d="M114.517 332.096C114.442 332.125 114.354 332.112 114.289 332.055C99.5892 319.195 74.9346 309.848 74.6873 309.755C74.5708 309.711 74.5121 309.581 74.5556 309.465C74.5991 309.349 74.7291 309.29 74.8455 309.333C75.0936 309.426 99.8234 318.801 114.585 331.716C114.679 331.798 114.688 331.94 114.607 332.034C114.581 332.063 114.551 332.084 114.517 332.096Z" fill="white"/>
<path d="M126.251 343.975C126.251 343.975 94.9744 345.007 89.7901 325.58C85.6237 309.967 98.0983 325.797 112.604 335.421C113.743 336.176 114.932 334.537 113.861 333.689C103.334 325.361 88.1702 311.785 90.6985 304.424C94.5153 293.313 95.6686 299.384 105.857 312.072C116.046 324.76 121.091 324.218 115.521 314.889C109.951 305.56 94.2847 297.313 95.2377 290.932C96.1907 284.551 102.005 275.934 104.06 271.767C106.115 267.601 125.951 278.638 125.915 286.854C125.879 295.069 119.993 307.416 123.164 314.052C126.334 320.688 129.259 307.41 130.245 300.017C131.23 292.623 133.078 288.279 138.505 295.885C143.931 303.491 139.232 314.844 133.866 321.4C128.5 327.956 127.384 333.568 130.272 330.565C133.159 327.561 141.277 317.591 141.979 312.799C142.682 308.007 153.985 326.404 126.251 343.975Z" fill="url(#paint51_linear_50_285)"/>
<path opacity="0.53" d="M124.901 342.9C124.811 342.858 124.747 342.77 124.742 342.663C123.522 318.718 110.7 288.997 110.57 288.7C110.509 288.56 110.573 288.397 110.713 288.336C110.853 288.275 111.016 288.339 111.077 288.479C111.207 288.777 124.068 318.588 125.294 342.636C125.302 342.788 125.184 342.918 125.032 342.926C124.985 342.928 124.941 342.918 124.901 342.9Z" fill="white"/>
<defs>
<linearGradient id="paint0_linear_50_285" x1="400.526" y1="427.53" x2="126.023" y2="131.24" gradientUnits="userSpaceOnUse">
<stop stop-color="#DAE3FE"/>
<stop offset="1" stop-color="#E9EFFD"/>
</linearGradient>
<linearGradient id="paint1_linear_50_285" x1="193.506" y1="404.539" x2="193.506" y2="148.618" gradientUnits="userSpaceOnUse">
<stop stop-color="#09005D"/>
<stop offset="1" stop-color="#1A0F91"/>
</linearGradient>
<linearGradient id="paint2_linear_50_285" x1="90.3875" y1="128.624" x2="93.5526" y2="128.624" gradientUnits="userSpaceOnUse">
<stop stop-color="#4F52FF"/>
<stop offset="1" stop-color="#4042E2"/>
</linearGradient>
<linearGradient id="paint3_linear_50_285" x1="187.646" y1="160.057" x2="192.575" y2="160.057" gradientUnits="userSpaceOnUse">
<stop stop-color="#4F52FF"/>
<stop offset="1" stop-color="#4042E2"/>
</linearGradient>
<linearGradient id="paint4_linear_50_285" x1="294.762" y1="164.571" x2="297.921" y2="164.571" gradientUnits="userSpaceOnUse">
<stop stop-color="#4F52FF"/>
<stop offset="1" stop-color="#4042E2"/>
</linearGradient>
<linearGradient id="paint5_linear_50_285" x1="94.7486" y1="152.039" x2="89.0213" y2="226.494" gradientUnits="userSpaceOnUse">
<stop stop-color="#4F52FF"/>
<stop offset="1" stop-color="#4042E2"/>
</linearGradient>
<linearGradient id="paint6_linear_50_285" x1="94.7225" y1="152.037" x2="88.9952" y2="226.492" gradientUnits="userSpaceOnUse">
<stop stop-color="#4F52FF"/>
<stop offset="1" stop-color="#4042E2"/>
</linearGradient>
<linearGradient id="paint7_linear_50_285" x1="204.391" y1="207.514" x2="259.325" y2="140.372" gradientUnits="userSpaceOnUse">
<stop stop-color="#4F52FF"/>
<stop offset="1" stop-color="#4042E2"/>
</linearGradient>
<linearGradient id="paint8_linear_50_285" x1="208.633" y1="210.985" x2="263.568" y2="143.843" gradientUnits="userSpaceOnUse">
<stop stop-color="#4F52FF"/>
<stop offset="1" stop-color="#4042E2"/>
</linearGradient>
<linearGradient id="paint9_linear_50_285" x1="281.605" y1="148.569" x2="318.682" y2="-16.92" gradientUnits="userSpaceOnUse">
<stop stop-color="#09005D"/>
<stop offset="1" stop-color="#1A0F91"/>
</linearGradient>
<linearGradient id="paint10_linear_50_285" x1="379.613" y1="34.4011" x2="349.77" y2="52.4874" gradientUnits="userSpaceOnUse">
<stop stop-color="#4F52FF"/>
<stop offset="1" stop-color="#4042E2"/>
</linearGradient>
<linearGradient id="paint11_linear_50_285" x1="252.736" y1="85.2249" x2="327.906" y2="85.2249" gradientUnits="userSpaceOnUse">
<stop stop-color="#4F52FF"/>
<stop offset="1" stop-color="#4042E2"/>
</linearGradient>
<linearGradient id="paint12_linear_50_285" x1="258.535" y1="82.648" x2="337.993" y2="82.648" gradientUnits="userSpaceOnUse">
<stop stop-color="#DAE3FE"/>
<stop offset="1" stop-color="#E9EFFD"/>
</linearGradient>
<linearGradient id="paint13_linear_50_285" x1="298.403" y1="79.6508" x2="343.167" y2="115.371" gradientUnits="userSpaceOnUse">
<stop stop-color="#FE7062"/>
<stop offset="1" stop-color="#FF928E"/>
</linearGradient>
<linearGradient id="paint14_linear_50_285" x1="403.105" y1="95.6475" x2="355.177" y2="80.7263" gradientUnits="userSpaceOnUse">
<stop stop-color="#FE7062"/>
<stop offset="1" stop-color="#FF928E"/>
</linearGradient>
<linearGradient id="paint15_linear_50_285" x1="299.576" y1="71.1853" x2="284.806" y2="119.415" gradientUnits="userSpaceOnUse">
<stop stop-color="#FE7062"/>
<stop offset="1" stop-color="#FF928E"/>
</linearGradient>
<linearGradient id="paint16_linear_50_285" x1="249.412" y1="44.7057" x2="382.399" y2="-97.3286" gradientUnits="userSpaceOnUse">
<stop stop-color="#09005D"/>
<stop offset="1" stop-color="#1A0F91"/>
</linearGradient>
<linearGradient id="paint17_linear_50_285" x1="186.163" y1="107.994" x2="239.19" y2="172.028" gradientUnits="userSpaceOnUse">
<stop stop-color="#FE7062"/>
<stop offset="1" stop-color="#FF928E"/>
</linearGradient>
<linearGradient id="paint18_linear_50_285" x1="161.727" y1="83.678" x2="247.552" y2="170.663" gradientUnits="userSpaceOnUse">
<stop stop-color="#FE7062"/>
<stop offset="1" stop-color="#FF928E"/>
</linearGradient>
<linearGradient id="paint19_linear_50_285" x1="208.429" y1="56.4767" x2="188.233" y2="103.802" gradientUnits="userSpaceOnUse">
<stop stop-color="#4F52FF"/>
<stop offset="1" stop-color="#4042E2"/>
</linearGradient>
<linearGradient id="paint20_linear_50_285" x1="200.236" y1="72.3416" x2="204.151" y2="72.3416" gradientUnits="userSpaceOnUse">
<stop stop-color="#DAE3FE"/>
<stop offset="1" stop-color="#E9EFFD"/>
</linearGradient>
<linearGradient id="paint21_linear_50_285" x1="206.17" y1="117.246" x2="245.96" y2="46.7091" gradientUnits="userSpaceOnUse">
<stop stop-color="#4F52FF"/>
<stop offset="1" stop-color="#4042E2"/>
</linearGradient>
<linearGradient id="paint22_linear_50_285" x1="200.134" y1="134.869" x2="215.466" y2="134.869" gradientUnits="userSpaceOnUse">
<stop stop-color="#DAE3FE"/>
<stop offset="1" stop-color="#E9EFFD"/>
</linearGradient>
<linearGradient id="paint23_linear_50_285" x1="190.474" y1="104.816" x2="180.828" y2="122.299" gradientUnits="userSpaceOnUse">
<stop stop-color="#4F52FF"/>
<stop offset="1" stop-color="#4042E2"/>
</linearGradient>
<linearGradient id="paint24_linear_50_285" x1="87.9085" y1="144.234" x2="81.5782" y2="1.35272" gradientUnits="userSpaceOnUse">
<stop stop-color="#09005D"/>
<stop offset="1" stop-color="#1A0F91"/>
</linearGradient>
<linearGradient id="paint25_linear_50_285" x1="119.064" y1="-5.62506" x2="107.308" y2="22.8609" gradientUnits="userSpaceOnUse">
<stop stop-color="#4F52FF"/>
<stop offset="1" stop-color="#4042E2"/>
</linearGradient>
<linearGradient id="paint26_linear_50_285" x1="41.8106" y1="77.3141" x2="116.98" y2="77.3141" gradientUnits="userSpaceOnUse">
<stop stop-color="#4F52FF"/>
<stop offset="1" stop-color="#4042E2"/>
</linearGradient>
<linearGradient id="paint27_linear_50_285" x1="127.067" y1="74.7373" x2="47.6088" y2="74.7373" gradientUnits="userSpaceOnUse">
<stop stop-color="#DAE3FE"/>
<stop offset="1" stop-color="#E9EFFD"/>
</linearGradient>
<linearGradient id="paint28_linear_50_285" x1="116.132" y1="106.45" x2="49.5138" y2="38.3246" gradientUnits="userSpaceOnUse">
<stop stop-color="#FE7062"/>
<stop offset="1" stop-color="#FF928E"/>
</linearGradient>
<linearGradient id="paint29_linear_50_285" x1="111.309" y1="24.5605" x2="97.7441" y2="43.5512" gradientUnits="userSpaceOnUse">
<stop stop-color="#FE7062"/>
<stop offset="1" stop-color="#FF928E"/>
</linearGradient>
<linearGradient id="paint30_linear_50_285" x1="87.5177" y1="65.4164" x2="73.6516" y2="118.168" gradientUnits="userSpaceOnUse">
<stop stop-color="#FE7062"/>
<stop offset="1" stop-color="#FF928E"/>
</linearGradient>
<linearGradient id="paint31_linear_50_285" x1="322.33" y1="269.903" x2="320.522" y2="184.596" gradientUnits="userSpaceOnUse">
<stop stop-color="#09005D"/>
<stop offset="1" stop-color="#1A0F91"/>
</linearGradient>
<linearGradient id="paint32_linear_50_285" x1="317.776" y1="177.503" x2="319.133" y2="127.314" gradientUnits="userSpaceOnUse">
<stop stop-color="#E1473D"/>
<stop offset="1" stop-color="#E9605A"/>
</linearGradient>
<linearGradient id="paint33_linear_50_285" x1="263.468" y1="168.428" x2="302.016" y2="221.712" gradientUnits="userSpaceOnUse">
<stop stop-color="#FEBBBA"/>
<stop offset="1" stop-color="#FF928E"/>
</linearGradient>
<linearGradient id="paint34_linear_50_285" x1="349.509" y1="371.074" x2="361.655" y2="371.074" gradientUnits="userSpaceOnUse">
<stop stop-color="#09005D"/>
<stop offset="1" stop-color="#1A0F91"/>
</linearGradient>
<linearGradient id="paint35_linear_50_285" x1="301.871" y1="387.943" x2="306.863" y2="329.607" gradientUnits="userSpaceOnUse">
<stop stop-color="#FEBBBA"/>
<stop offset="1" stop-color="#FF928E"/>
</linearGradient>
<linearGradient id="paint36_linear_50_285" x1="293.08" y1="368.857" x2="312.733" y2="368.857" gradientUnits="userSpaceOnUse">
<stop stop-color="#09005D"/>
<stop offset="1" stop-color="#1A0F91"/>
</linearGradient>
<linearGradient id="paint37_linear_50_285" x1="349.379" y1="390.505" x2="355.631" y2="317.436" gradientUnits="userSpaceOnUse">
<stop stop-color="#FEBBBA"/>
<stop offset="1" stop-color="#FF928E"/>
</linearGradient>
<linearGradient id="paint38_linear_50_285" x1="296.27" y1="217.609" x2="299.553" y2="193.589" gradientUnits="userSpaceOnUse">
<stop stop-color="#FEBBBA"/>
<stop offset="1" stop-color="#FF928E"/>
</linearGradient>
<linearGradient id="paint39_linear_50_285" x1="290.423" y1="188.682" x2="308.618" y2="133.105" gradientUnits="userSpaceOnUse">
<stop stop-color="#FEBBBA"/>
<stop offset="1" stop-color="#FF928E"/>
</linearGradient>
<linearGradient id="paint40_linear_50_285" x1="240.404" y1="-184.467" x2="231.982" y2="-233.964" gradientUnits="userSpaceOnUse">
<stop stop-color="#E1473D"/>
<stop offset="1" stop-color="#E9605A"/>
</linearGradient>
<linearGradient id="paint41_linear_50_285" x1="296.317" y1="191.914" x2="314.512" y2="136.337" gradientUnits="userSpaceOnUse">
<stop stop-color="#FEBBBA"/>
<stop offset="1" stop-color="#FF928E"/>
</linearGradient>
<linearGradient id="paint42_linear_50_285" x1="258.84" y1="171.776" x2="297.388" y2="225.061" gradientUnits="userSpaceOnUse">
<stop stop-color="#FEBBBA"/>
<stop offset="1" stop-color="#FF928E"/>
</linearGradient>
<linearGradient id="paint43_linear_50_285" x1="248.201" y1="152.345" x2="241.075" y2="152.345" gradientUnits="userSpaceOnUse">
<stop stop-color="#FEBBBA"/>
<stop offset="1" stop-color="#FF928E"/>
</linearGradient>
<linearGradient id="paint44_linear_50_285" x1="327.905" y1="378.734" x2="274.327" y2="218" gradientUnits="userSpaceOnUse">
<stop stop-color="#4F52FF"/>
<stop offset="1" stop-color="#4042E2"/>
</linearGradient>
<linearGradient id="paint45_linear_50_285" x1="350.517" y1="371.197" x2="296.939" y2="210.462" gradientUnits="userSpaceOnUse">
<stop stop-color="#4F52FF"/>
<stop offset="1" stop-color="#4042E2"/>
</linearGradient>
<linearGradient id="paint46_linear_50_285" x1="298.618" y1="212.964" x2="307.358" y2="294.05" gradientUnits="userSpaceOnUse">
<stop stop-color="#FE7062"/>
<stop offset="1" stop-color="#FF928E"/>
</linearGradient>
<linearGradient id="paint47_linear_50_285" x1="362.475" y1="153.948" x2="343.484" y2="201.877" gradientUnits="userSpaceOnUse">
<stop stop-color="#09005D"/>
<stop offset="1" stop-color="#1A0F91"/>
</linearGradient>
<linearGradient id="paint48_linear_50_285" x1="319.989" y1="269.953" x2="318.18" y2="184.646" gradientUnits="userSpaceOnUse">
<stop stop-color="#09005D"/>
<stop offset="1" stop-color="#1A0F91"/>
</linearGradient>
<linearGradient id="paint49_linear_50_285" x1="310.672" y1="270.151" x2="308.863" y2="184.843" gradientUnits="userSpaceOnUse">
<stop stop-color="#09005D"/>
<stop offset="1" stop-color="#1A0F91"/>
</linearGradient>
<linearGradient id="paint50_linear_50_285" x1="309.802" y1="229.314" x2="331.613" y2="229.314" gradientUnits="userSpaceOnUse">
<stop stop-color="#FEBBBA"/>
<stop offset="1" stop-color="#FF928E"/>
</linearGradient>
<linearGradient id="paint51_linear_50_285" x1="138.53" y1="355.137" x2="97.8361" y2="281.887" gradientUnits="userSpaceOnUse">
<stop stop-color="#4F52FF"/>
<stop offset="1" stop-color="#4042E2"/>
</linearGradient>
</defs>
</svg>
